<mxfile host="app.diagrams.net" agent="Mozilla/5.0 (Windows NT 10.0; Win64; x64) AppleWebKit/537.36 (KHTML, like Gecko) Chrome/133.0.0.0 Safari/537.36" version="26.0.16">
  <diagram id="C5RBs43oDa-KdzZeNtuy" name="Page-1">
    <mxGraphModel dx="3801" dy="2757" grid="1" gridSize="10" guides="1" tooltips="1" connect="1" arrows="1" fold="1" page="1" pageScale="1" pageWidth="827" pageHeight="1169" math="0" shadow="0">
      <root>
        <mxCell id="WIyWlLk6GJQsqaUBKTNV-0" />
        <mxCell id="WIyWlLk6GJQsqaUBKTNV-1" parent="WIyWlLk6GJQsqaUBKTNV-0" />
        <mxCell id="IeuhUxRmmoXqAZpo1SSm-132" value="Booking" style="swimlane;fontStyle=0;align=center;verticalAlign=top;childLayout=stackLayout;horizontal=1;startSize=26;horizontalStack=0;resizeParent=1;resizeLast=0;collapsible=1;marginBottom=0;rounded=0;shadow=0;strokeWidth=3;container=0;" parent="WIyWlLk6GJQsqaUBKTNV-1" vertex="1">
          <mxGeometry x="-2380" y="-372" width="250" height="212" as="geometry">
            <mxRectangle x="120" y="570" width="160" height="26" as="alternateBounds" />
          </mxGeometry>
        </mxCell>
        <mxCell id="IeuhUxRmmoXqAZpo1SSm-133" value="#id: int" style="text;align=left;verticalAlign=top;spacingLeft=4;spacingRight=4;overflow=hidden;rotatable=0;points=[[0,0.5],[1,0.5]];portConstraint=eastwest;container=0;" parent="IeuhUxRmmoXqAZpo1SSm-132" vertex="1">
          <mxGeometry y="26" width="250" height="26" as="geometry" />
        </mxCell>
        <mxCell id="IeuhUxRmmoXqAZpo1SSm-134" value="#price: float" style="text;align=left;verticalAlign=top;spacingLeft=4;spacingRight=4;overflow=hidden;rotatable=0;points=[[0,0.5],[1,0.5]];portConstraint=eastwest;rounded=0;shadow=0;html=0;container=0;" parent="IeuhUxRmmoXqAZpo1SSm-132" vertex="1">
          <mxGeometry y="52" width="250" height="26" as="geometry" />
        </mxCell>
        <mxCell id="IeuhUxRmmoXqAZpo1SSm-135" value="#customerId: int" style="text;align=left;verticalAlign=top;spacingLeft=4;spacingRight=4;overflow=hidden;rotatable=0;points=[[0,0.5],[1,0.5]];portConstraint=eastwest;rounded=0;shadow=0;html=0;container=0;" parent="IeuhUxRmmoXqAZpo1SSm-132" vertex="1">
          <mxGeometry y="78" width="250" height="26" as="geometry" />
        </mxCell>
        <mxCell id="IeuhUxRmmoXqAZpo1SSm-136" value="#providerId: int" style="text;align=left;verticalAlign=top;spacingLeft=4;spacingRight=4;overflow=hidden;rotatable=0;points=[[0,0.5],[1,0.5]];portConstraint=eastwest;rounded=0;shadow=0;html=0;container=0;" parent="IeuhUxRmmoXqAZpo1SSm-132" vertex="1">
          <mxGeometry y="104" width="250" height="26" as="geometry" />
        </mxCell>
        <mxCell id="IeuhUxRmmoXqAZpo1SSm-137" value="#scheduleId : int " style="text;align=left;verticalAlign=top;spacingLeft=4;spacingRight=4;overflow=hidden;rotatable=0;points=[[0,0.5],[1,0.5]];portConstraint=eastwest;rounded=0;shadow=0;html=0;fontColor=#000000;container=0;" parent="IeuhUxRmmoXqAZpo1SSm-132" vertex="1">
          <mxGeometry y="130" width="250" height="26" as="geometry" />
        </mxCell>
        <mxCell id="IeuhUxRmmoXqAZpo1SSm-138" value="#serviceId : int " style="text;align=left;verticalAlign=top;spacingLeft=4;spacingRight=4;overflow=hidden;rotatable=0;points=[[0,0.5],[1,0.5]];portConstraint=eastwest;rounded=0;shadow=0;html=0;fontColor=#000000;container=0;" parent="IeuhUxRmmoXqAZpo1SSm-132" vertex="1">
          <mxGeometry y="156" width="250" height="26" as="geometry" />
        </mxCell>
        <mxCell id="IeuhUxRmmoXqAZpo1SSm-139" value="+checkAvailability(scheduleId: int) : Boolean" style="text;align=left;verticalAlign=top;spacingLeft=4;spacingRight=4;overflow=hidden;rotatable=0;points=[[0,0.5],[1,0.5]];portConstraint=eastwest;rounded=0;shadow=0;html=0;container=0;" parent="IeuhUxRmmoXqAZpo1SSm-132" vertex="1">
          <mxGeometry y="182" width="250" height="26" as="geometry" />
        </mxCell>
        <mxCell id="IeuhUxRmmoXqAZpo1SSm-140" value="" style="endArrow=none;html=1;rounded=0;exitX=0.002;exitY=0.052;exitDx=0;exitDy=0;exitPerimeter=0;entryX=0.994;entryY=0.057;entryDx=0;entryDy=0;entryPerimeter=0;" parent="IeuhUxRmmoXqAZpo1SSm-132" source="IeuhUxRmmoXqAZpo1SSm-139" target="IeuhUxRmmoXqAZpo1SSm-139" edge="1">
          <mxGeometry width="50" height="50" relative="1" as="geometry">
            <mxPoint x="205" y="283.6660000000001" as="sourcePoint" />
            <mxPoint x="452" y="282.0019999999999" as="targetPoint" />
          </mxGeometry>
        </mxCell>
        <mxCell id="IeuhUxRmmoXqAZpo1SSm-141" value="" style="endArrow=block;endSize=10;endFill=0;shadow=0;strokeWidth=2;rounded=0;elbow=vertical;exitX=0.5;exitY=0;exitDx=0;exitDy=0;entryX=0.498;entryY=1.109;entryDx=0;entryDy=0;edgeStyle=elbowEdgeStyle;entryPerimeter=0;" parent="WIyWlLk6GJQsqaUBKTNV-1" source="IeuhUxRmmoXqAZpo1SSm-155" target="IeuhUxRmmoXqAZpo1SSm-226" edge="1">
          <mxGeometry width="160" relative="1" as="geometry">
            <mxPoint x="-2000" y="-830" as="sourcePoint" />
            <mxPoint x="-1890" y="-960" as="targetPoint" />
            <Array as="points">
              <mxPoint x="-2250" y="-880" />
            </Array>
          </mxGeometry>
        </mxCell>
        <mxCell id="IeuhUxRmmoXqAZpo1SSm-142" value="Service" style="swimlane;fontStyle=0;align=center;verticalAlign=top;childLayout=stackLayout;horizontal=1;startSize=26;horizontalStack=0;resizeParent=1;resizeLast=0;collapsible=1;marginBottom=0;rounded=0;shadow=0;strokeWidth=3;container=0;" parent="WIyWlLk6GJQsqaUBKTNV-1" vertex="1">
          <mxGeometry x="-1860" y="50" width="603" height="312" as="geometry">
            <mxRectangle x="130" y="380" width="160" height="26" as="alternateBounds" />
          </mxGeometry>
        </mxCell>
        <mxCell id="IeuhUxRmmoXqAZpo1SSm-143" value="#id: int" style="text;align=left;verticalAlign=top;spacingLeft=4;spacingRight=4;overflow=hidden;rotatable=0;points=[[0,0.5],[1,0.5]];portConstraint=eastwest;container=0;" parent="IeuhUxRmmoXqAZpo1SSm-142" vertex="1">
          <mxGeometry y="26" width="603" height="26" as="geometry" />
        </mxCell>
        <mxCell id="IeuhUxRmmoXqAZpo1SSm-144" value="#title: String" style="text;align=left;verticalAlign=top;spacingLeft=4;spacingRight=4;overflow=hidden;rotatable=0;points=[[0,0.5],[1,0.5]];portConstraint=eastwest;container=0;" parent="IeuhUxRmmoXqAZpo1SSm-142" vertex="1">
          <mxGeometry y="52" width="603" height="26" as="geometry" />
        </mxCell>
        <mxCell id="IeuhUxRmmoXqAZpo1SSm-145" value="#description: String" style="text;align=left;verticalAlign=top;spacingLeft=4;spacingRight=4;overflow=hidden;rotatable=0;points=[[0,0.5],[1,0.5]];portConstraint=eastwest;container=0;" parent="IeuhUxRmmoXqAZpo1SSm-142" vertex="1">
          <mxGeometry y="78" width="603" height="26" as="geometry" />
        </mxCell>
        <mxCell id="IeuhUxRmmoXqAZpo1SSm-146" value="#duration: int" style="text;align=left;verticalAlign=top;spacingLeft=4;spacingRight=4;overflow=hidden;rotatable=0;points=[[0,0.5],[1,0.5]];portConstraint=eastwest;container=0;" parent="IeuhUxRmmoXqAZpo1SSm-142" vertex="1">
          <mxGeometry y="104" width="603" height="26" as="geometry" />
        </mxCell>
        <mxCell id="IeuhUxRmmoXqAZpo1SSm-147" value="#price: double" style="text;align=left;verticalAlign=top;spacingLeft=4;spacingRight=4;overflow=hidden;rotatable=0;points=[[0,0.5],[1,0.5]];portConstraint=eastwest;container=0;" parent="IeuhUxRmmoXqAZpo1SSm-142" vertex="1">
          <mxGeometry y="130" width="603" height="26" as="geometry" />
        </mxCell>
        <mxCell id="IeuhUxRmmoXqAZpo1SSm-148" value="#dateAvailabilityÂ : date" style="text;align=left;verticalAlign=top;spacingLeft=4;spacingRight=4;overflow=hidden;rotatable=0;points=[[0,0.5],[1,0.5]];portConstraint=eastwest;container=0;" parent="IeuhUxRmmoXqAZpo1SSm-142" vertex="1">
          <mxGeometry y="156" width="603" height="26" as="geometry" />
        </mxCell>
        <mxCell id="IeuhUxRmmoXqAZpo1SSm-149" value="#categoryId : int" style="text;align=left;verticalAlign=top;spacingLeft=4;spacingRight=4;overflow=hidden;rotatable=0;points=[[0,0.5],[1,0.5]];portConstraint=eastwest;container=0;" parent="IeuhUxRmmoXqAZpo1SSm-142" vertex="1">
          <mxGeometry y="182" width="603" height="26" as="geometry" />
        </mxCell>
        <mxCell id="IeuhUxRmmoXqAZpo1SSm-150" value="#providerId : int" style="text;align=left;verticalAlign=top;spacingLeft=4;spacingRight=4;overflow=hidden;rotatable=0;points=[[0,0.5],[1,0.5]];portConstraint=eastwest;container=0;" parent="IeuhUxRmmoXqAZpo1SSm-142" vertex="1">
          <mxGeometry y="208" width="603" height="26" as="geometry" />
        </mxCell>
        <mxCell id="IeuhUxRmmoXqAZpo1SSm-151" value="+addService(title: String, description: String, duration: int, price: double, categoryId: int, providerId: int) : Service" style="text;align=left;verticalAlign=top;spacingLeft=4;spacingRight=4;overflow=hidden;rotatable=0;points=[[0,0.5],[1,0.5]];portConstraint=eastwest;container=0;" parent="IeuhUxRmmoXqAZpo1SSm-142" vertex="1">
          <mxGeometry y="234" width="603" height="26" as="geometry" />
        </mxCell>
        <mxCell id="IeuhUxRmmoXqAZpo1SSm-152" value="+updateService(serviceId: int, title: String, description: String, duration: int, price: double) : Boolean" style="text;align=left;verticalAlign=top;spacingLeft=4;spacingRight=4;overflow=hidden;rotatable=0;points=[[0,0.5],[1,0.5]];portConstraint=eastwest;container=0;" parent="IeuhUxRmmoXqAZpo1SSm-142" vertex="1">
          <mxGeometry y="260" width="603" height="26" as="geometry" />
        </mxCell>
        <mxCell id="IeuhUxRmmoXqAZpo1SSm-153" value="+deleteService(serviceId: int) : Boolean" style="text;align=left;verticalAlign=top;spacingLeft=4;spacingRight=4;overflow=hidden;rotatable=0;points=[[0,0.5],[1,0.5]];portConstraint=eastwest;container=0;" parent="IeuhUxRmmoXqAZpo1SSm-142" vertex="1">
          <mxGeometry y="286" width="603" height="26" as="geometry" />
        </mxCell>
        <mxCell id="IeuhUxRmmoXqAZpo1SSm-154" value="" style="endArrow=none;html=1;rounded=0;exitX=0;exitY=0.866;exitDx=0;exitDy=0;exitPerimeter=0;entryX=1.003;entryY=0.89;entryDx=0;entryDy=0;entryPerimeter=0;" parent="IeuhUxRmmoXqAZpo1SSm-142" source="IeuhUxRmmoXqAZpo1SSm-150" target="IeuhUxRmmoXqAZpo1SSm-150" edge="1">
          <mxGeometry width="50" height="50" relative="1" as="geometry">
            <mxPoint x="593" y="210" as="sourcePoint" />
            <mxPoint x="443" y="206" as="targetPoint" />
          </mxGeometry>
        </mxCell>
        <mxCell id="IeuhUxRmmoXqAZpo1SSm-155" value="Customer" style="swimlane;fontStyle=2;align=center;verticalAlign=top;childLayout=stackLayout;horizontal=1;startSize=26;horizontalStack=0;resizeParent=1;resizeLast=0;collapsible=1;marginBottom=0;rounded=0;shadow=0;strokeWidth=3;container=0;" parent="WIyWlLk6GJQsqaUBKTNV-1" vertex="1">
          <mxGeometry x="-2670" y="-800" width="340" height="242" as="geometry">
            <mxRectangle x="230" y="140" width="160" height="26" as="alternateBounds" />
          </mxGeometry>
        </mxCell>
        <mxCell id="IeuhUxRmmoXqAZpo1SSm-156" value="#booking : List&lt;Booking&gt;" style="text;align=left;verticalAlign=top;spacingLeft=4;spacingRight=4;overflow=hidden;rotatable=0;points=[[0,0.5],[1,0.5]];portConstraint=eastwest;container=0;" parent="IeuhUxRmmoXqAZpo1SSm-155" vertex="1">
          <mxGeometry y="26" width="340" height="34" as="geometry" />
        </mxCell>
        <mxCell id="IeuhUxRmmoXqAZpo1SSm-157" value="" style="endArrow=none;html=1;rounded=0;entryX=1;entryY=0.969;entryDx=0;entryDy=0;entryPerimeter=0;" parent="IeuhUxRmmoXqAZpo1SSm-155" target="IeuhUxRmmoXqAZpo1SSm-156" edge="1">
          <mxGeometry width="50" height="50" relative="1" as="geometry">
            <mxPoint y="59.32000000000005" as="sourcePoint" />
            <mxPoint x="298.98" y="58.9459999999998" as="targetPoint" />
          </mxGeometry>
        </mxCell>
        <mxCell id="IeuhUxRmmoXqAZpo1SSm-158" value="+bookService(service: Service, scheduleId: int) : Booking" style="text;align=left;verticalAlign=top;spacingLeft=4;spacingRight=4;overflow=hidden;rotatable=0;points=[[0,0.5],[1,0.5]];portConstraint=eastwest;container=0;" parent="IeuhUxRmmoXqAZpo1SSm-155" vertex="1">
          <mxGeometry y="60" width="340" height="26" as="geometry" />
        </mxCell>
        <mxCell id="IeuhUxRmmoXqAZpo1SSm-159" value="+getBookings : (List&lt;Booking&gt;)" style="text;align=left;verticalAlign=top;spacingLeft=4;spacingRight=4;overflow=hidden;rotatable=0;points=[[0,0.5],[1,0.5]];portConstraint=eastwest;container=0;" parent="IeuhUxRmmoXqAZpo1SSm-155" vertex="1">
          <mxGeometry y="86" width="340" height="26" as="geometry" />
        </mxCell>
        <mxCell id="IeuhUxRmmoXqAZpo1SSm-160" value="+removeBooking(bookingId : int)" style="text;align=left;verticalAlign=top;spacingLeft=4;spacingRight=4;overflow=hidden;rotatable=0;points=[[0,0.5],[1,0.5]];portConstraint=eastwest;container=0;" parent="IeuhUxRmmoXqAZpo1SSm-155" vertex="1">
          <mxGeometry y="112" width="340" height="26" as="geometry" />
        </mxCell>
        <mxCell id="IeuhUxRmmoXqAZpo1SSm-161" value="+updateBooking(bookingId: int, newScheduleId: int)Â " style="text;align=left;verticalAlign=top;spacingLeft=4;spacingRight=4;overflow=hidden;rotatable=0;points=[[0,0.5],[1,0.5]];portConstraint=eastwest;container=0;" parent="IeuhUxRmmoXqAZpo1SSm-155" vertex="1">
          <mxGeometry y="138" width="340" height="26" as="geometry" />
        </mxCell>
        <mxCell id="IeuhUxRmmoXqAZpo1SSm-162" value="+addReview() : Boolean" style="text;align=left;verticalAlign=top;spacingLeft=4;spacingRight=4;overflow=hidden;rotatable=0;points=[[0,0.5],[1,0.5]];portConstraint=eastwest;container=0;" parent="IeuhUxRmmoXqAZpo1SSm-155" vertex="1">
          <mxGeometry y="164" width="340" height="26" as="geometry" />
        </mxCell>
        <mxCell id="IeuhUxRmmoXqAZpo1SSm-163" value="+updateReview(id: int, rating: int, comment: String): Boolean" style="text;align=left;verticalAlign=top;spacingLeft=4;spacingRight=4;overflow=hidden;rotatable=0;points=[[0,0.5],[1,0.5]];portConstraint=eastwest;container=0;" parent="IeuhUxRmmoXqAZpo1SSm-155" vertex="1">
          <mxGeometry y="190" width="340" height="26" as="geometry" />
        </mxCell>
        <mxCell id="IeuhUxRmmoXqAZpo1SSm-164" value="+deleteReview(id: int): Boolean" style="text;align=left;verticalAlign=top;spacingLeft=4;spacingRight=4;overflow=hidden;rotatable=0;points=[[0,0.5],[1,0.5]];portConstraint=eastwest;container=0;" parent="IeuhUxRmmoXqAZpo1SSm-155" vertex="1">
          <mxGeometry y="216" width="340" height="26" as="geometry" />
        </mxCell>
        <mxCell id="IeuhUxRmmoXqAZpo1SSm-165" value="Provider" style="swimlane;fontStyle=2;align=center;verticalAlign=top;childLayout=stackLayout;horizontal=1;startSize=26;horizontalStack=0;resizeParent=1;resizeLast=0;collapsible=1;marginBottom=0;rounded=0;shadow=0;strokeWidth=3;container=0;" parent="WIyWlLk6GJQsqaUBKTNV-1" vertex="1">
          <mxGeometry x="-1520" y="-816" width="536" height="328" as="geometry">
            <mxRectangle x="230" y="140" width="160" height="26" as="alternateBounds" />
          </mxGeometry>
        </mxCell>
        <mxCell id="IeuhUxRmmoXqAZpo1SSm-166" value="#services : List&lt;Service&gt;" style="text;align=left;verticalAlign=top;spacingLeft=4;spacingRight=4;overflow=hidden;rotatable=0;points=[[0,0.5],[1,0.5]];portConstraint=eastwest;container=0;" parent="IeuhUxRmmoXqAZpo1SSm-165" vertex="1">
          <mxGeometry y="26" width="536" height="26" as="geometry" />
        </mxCell>
        <mxCell id="IeuhUxRmmoXqAZpo1SSm-167" value="#availability : List&lt;Schedule&gt;Â &gt;" style="text;align=left;verticalAlign=top;spacingLeft=4;spacingRight=4;overflow=hidden;rotatable=0;points=[[0,0.5],[1,0.5]];portConstraint=eastwest;container=0;" parent="IeuhUxRmmoXqAZpo1SSm-165" vertex="1">
          <mxGeometry y="52" width="536" height="26" as="geometry" />
        </mxCell>
        <mxCell id="IeuhUxRmmoXqAZpo1SSm-168" value="+createService(title: String, description: String, price: double, duration: int, categoryId: int) : Service" style="text;align=left;verticalAlign=top;spacingLeft=4;spacingRight=4;overflow=hidden;rotatable=0;points=[[0,0.5],[1,0.5]];portConstraint=eastwest;container=0;fontColor=#000000;" parent="IeuhUxRmmoXqAZpo1SSm-165" vertex="1">
          <mxGeometry y="78" width="536" height="32" as="geometry" />
        </mxCell>
        <mxCell id="IeuhUxRmmoXqAZpo1SSm-169" value="+updateService(serviceId: int, title: String, description: String, price: double, duration: int) : Boolean" style="text;align=left;verticalAlign=top;spacingLeft=4;spacingRight=4;overflow=hidden;rotatable=0;points=[[0,0.5],[1,0.5]];portConstraint=eastwest;container=0;" parent="IeuhUxRmmoXqAZpo1SSm-165" vertex="1">
          <mxGeometry y="110" width="536" height="36" as="geometry" />
        </mxCell>
        <mxCell id="IeuhUxRmmoXqAZpo1SSm-170" value="+deleteService (serviceId: int)Â : Boolean" style="text;align=left;verticalAlign=top;spacingLeft=4;spacingRight=4;overflow=hidden;rotatable=0;points=[[0,0.5],[1,0.5]];portConstraint=eastwest;container=0;" parent="IeuhUxRmmoXqAZpo1SSm-165" vertex="1">
          <mxGeometry y="146" width="536" height="26" as="geometry" />
        </mxCell>
        <mxCell id="IeuhUxRmmoXqAZpo1SSm-171" value="+getServices(): List&lt;Service&gt;&#xa;" style="text;align=left;verticalAlign=top;spacingLeft=4;spacingRight=4;overflow=hidden;rotatable=0;points=[[0,0.5],[1,0.5]];portConstraint=eastwest;container=0;" parent="IeuhUxRmmoXqAZpo1SSm-165" vertex="1">
          <mxGeometry y="172" width="536" height="26" as="geometry" />
        </mxCell>
        <mxCell id="IeuhUxRmmoXqAZpo1SSm-172" value="+getSchedule(): List&lt;Schedule&gt;&#xa;" style="text;align=left;verticalAlign=top;spacingLeft=4;spacingRight=4;overflow=hidden;rotatable=0;points=[[0,0.5],[1,0.5]];portConstraint=eastwest;container=0;" parent="IeuhUxRmmoXqAZpo1SSm-165" vertex="1">
          <mxGeometry y="198" width="536" height="26" as="geometry" />
        </mxCell>
        <mxCell id="IeuhUxRmmoXqAZpo1SSm-173" value="+updateSchedule(scheduleId: int, date: Date, startTime: Time, endTime: Time) : Boolean" style="text;align=left;verticalAlign=top;spacingLeft=4;spacingRight=4;overflow=hidden;rotatable=0;points=[[0,0.5],[1,0.5]];portConstraint=eastwest;container=0;" parent="IeuhUxRmmoXqAZpo1SSm-165" vertex="1">
          <mxGeometry y="224" width="536" height="26" as="geometry" />
        </mxCell>
        <mxCell id="IeuhUxRmmoXqAZpo1SSm-174" value="+getBookings() : List&lt;Booking&gt;" style="text;align=left;verticalAlign=top;spacingLeft=4;spacingRight=4;overflow=hidden;rotatable=0;points=[[0,0.5],[1,0.5]];portConstraint=eastwest;container=0;" parent="IeuhUxRmmoXqAZpo1SSm-165" vertex="1">
          <mxGeometry y="250" width="536" height="26" as="geometry" />
        </mxCell>
        <mxCell id="IeuhUxRmmoXqAZpo1SSm-175" value="+getAvailableSchedules(serviceId: int, date: Date) : List&lt;Schedule&gt;" style="text;align=left;verticalAlign=top;spacingLeft=4;spacingRight=4;overflow=hidden;rotatable=0;points=[[0,0.5],[1,0.5]];portConstraint=eastwest;container=0;" parent="IeuhUxRmmoXqAZpo1SSm-165" vertex="1">
          <mxGeometry y="276" width="536" height="26" as="geometry" />
        </mxCell>
        <mxCell id="IeuhUxRmmoXqAZpo1SSm-176" value="+getReviews() : List&lt;Review&gt;" style="text;align=left;verticalAlign=top;spacingLeft=4;spacingRight=4;overflow=hidden;rotatable=0;points=[[0,0.5],[1,0.5]];portConstraint=eastwest;container=0;fontColor=default;" parent="IeuhUxRmmoXqAZpo1SSm-165" vertex="1">
          <mxGeometry y="302" width="536" height="26" as="geometry" />
        </mxCell>
        <mxCell id="IeuhUxRmmoXqAZpo1SSm-177" value="" style="endArrow=none;html=1;rounded=0;entryX=1;entryY=1.077;entryDx=0;entryDy=0;entryPerimeter=0;exitX=-0.002;exitY=0.088;exitDx=0;exitDy=0;exitPerimeter=0;" parent="IeuhUxRmmoXqAZpo1SSm-165" source="IeuhUxRmmoXqAZpo1SSm-168" target="IeuhUxRmmoXqAZpo1SSm-167" edge="1">
          <mxGeometry width="50" height="50" relative="1" as="geometry">
            <mxPoint x="50" y="-120" as="sourcePoint" />
            <mxPoint x="330" y="-117.71000000000004" as="targetPoint" />
          </mxGeometry>
        </mxCell>
        <mxCell id="IeuhUxRmmoXqAZpo1SSm-178" value="" style="endArrow=none;endSize=10;endFill=0;shadow=0;strokeWidth=2;rounded=0;elbow=vertical;startFill=1;entryX=0.001;entryY=0.672;entryDx=0;entryDy=0;entryPerimeter=0;exitX=1.001;exitY=0.615;exitDx=0;exitDy=0;exitPerimeter=0;startArrow=diamond;" parent="WIyWlLk6GJQsqaUBKTNV-1" source="IeuhUxRmmoXqAZpo1SSm-146" target="IeuhUxRmmoXqAZpo1SSm-242" edge="1">
          <mxGeometry width="160" relative="1" as="geometry">
            <mxPoint x="-1130" y="-208.70999999999998" as="sourcePoint" />
            <mxPoint x="-970.0799999999999" y="-149.28599999999958" as="targetPoint" />
          </mxGeometry>
        </mxCell>
        <mxCell id="IeuhUxRmmoXqAZpo1SSm-179" value="" style="endArrow=none;html=1;rounded=0;strokeWidth=2;entryX=0.878;entryY=0.993;entryDx=0;entryDy=0;entryPerimeter=0;startArrow=diamond;startFill=0;exitX=0.857;exitY=1.038;exitDx=0;exitDy=0;exitPerimeter=0;" parent="WIyWlLk6GJQsqaUBKTNV-1" source="IeuhUxRmmoXqAZpo1SSm-164" target="IeuhUxRmmoXqAZpo1SSm-182" edge="1">
          <mxGeometry width="50" height="50" relative="1" as="geometry">
            <mxPoint x="-2378" y="-560" as="sourcePoint" />
            <mxPoint x="-2140" y="-600" as="targetPoint" />
          </mxGeometry>
        </mxCell>
        <mxCell id="IeuhUxRmmoXqAZpo1SSm-180" value="" style="endArrow=none;html=1;rounded=0;fontSize=12;startSize=8;endSize=8;strokeWidth=2;entryX=0;entryY=0.5;entryDx=0;entryDy=0;exitX=0.5;exitY=1;exitDx=0;exitDy=0;" parent="WIyWlLk6GJQsqaUBKTNV-1" source="IeuhUxRmmoXqAZpo1SSm-132" target="IeuhUxRmmoXqAZpo1SSm-148" edge="1">
          <mxGeometry width="50" height="50" relative="1" as="geometry">
            <mxPoint x="-2240" y="-40" as="sourcePoint" />
            <mxPoint x="-1816.32" y="-190" as="targetPoint" />
          </mxGeometry>
        </mxCell>
        <mxCell id="IeuhUxRmmoXqAZpo1SSm-181" value="1&amp;nbsp;" style="text;html=1;align=center;verticalAlign=middle;resizable=0;points=[];autosize=1;strokeColor=none;fillColor=none;fontStyle=1;container=0;" parent="WIyWlLk6GJQsqaUBKTNV-1" vertex="1">
          <mxGeometry x="-2330" y="-700" width="30" height="30" as="geometry" />
        </mxCell>
        <mxCell id="IeuhUxRmmoXqAZpo1SSm-182" value="0 *" style="text;html=1;align=center;verticalAlign=middle;resizable=0;points=[];autosize=1;strokeColor=none;fillColor=none;fontStyle=1;container=0;" parent="WIyWlLk6GJQsqaUBKTNV-1" vertex="1">
          <mxGeometry x="-2415" y="-400" width="40" height="30" as="geometry" />
        </mxCell>
        <mxCell id="IeuhUxRmmoXqAZpo1SSm-183" value="1" style="text;html=1;align=center;verticalAlign=middle;resizable=0;points=[];autosize=1;strokeColor=none;fillColor=none;fontStyle=1;container=0;" parent="WIyWlLk6GJQsqaUBKTNV-1" vertex="1">
          <mxGeometry x="-1257" y="141" width="30" height="30" as="geometry" />
        </mxCell>
        <mxCell id="IeuhUxRmmoXqAZpo1SSm-184" value="1" style="text;html=1;align=center;verticalAlign=middle;resizable=0;points=[];autosize=1;strokeColor=none;fillColor=none;fontStyle=1;container=0;" parent="WIyWlLk6GJQsqaUBKTNV-1" vertex="1">
          <mxGeometry x="-1375" y="-488" width="30" height="30" as="geometry" />
        </mxCell>
        <mxCell id="IeuhUxRmmoXqAZpo1SSm-185" value="0 *" style="text;html=1;align=center;verticalAlign=middle;resizable=0;points=[];autosize=1;strokeColor=none;fillColor=none;fontStyle=1;container=0;" parent="WIyWlLk6GJQsqaUBKTNV-1" vertex="1">
          <mxGeometry x="-1375" y="-360" width="40" height="30" as="geometry" />
        </mxCell>
        <mxCell id="IeuhUxRmmoXqAZpo1SSm-186" value="&lt;b&gt;0 *&lt;/b&gt;" style="text;html=1;align=center;verticalAlign=middle;resizable=0;points=[];autosize=1;strokeColor=none;fillColor=none;container=0;" parent="WIyWlLk6GJQsqaUBKTNV-1" vertex="1">
          <mxGeometry x="-1160" y="141" width="40" height="30" as="geometry" />
        </mxCell>
        <mxCell id="IeuhUxRmmoXqAZpo1SSm-187" value="0 *" style="text;html=1;align=center;verticalAlign=middle;resizable=0;points=[];autosize=1;strokeColor=none;fillColor=none;fontStyle=1;container=0;" parent="WIyWlLk6GJQsqaUBKTNV-1" vertex="1">
          <mxGeometry x="-1930" y="-259" width="40" height="30" as="geometry" />
        </mxCell>
        <mxCell id="IeuhUxRmmoXqAZpo1SSm-188" value="1" style="text;html=1;align=center;verticalAlign=middle;resizable=0;points=[];autosize=1;strokeColor=none;fillColor=none;fontStyle=1;container=0;" parent="WIyWlLk6GJQsqaUBKTNV-1" vertex="1">
          <mxGeometry x="-2135" y="-259" width="30" height="30" as="geometry" />
        </mxCell>
        <mxCell id="IeuhUxRmmoXqAZpo1SSm-189" value="" style="endArrow=none;html=1;rounded=0;endFill=0;strokeWidth=2;startSize=6;startFill=0;exitX=1;exitY=0;exitDx=0;exitDy=0;entryX=0.334;entryY=1.021;entryDx=0;entryDy=0;entryPerimeter=0;" parent="WIyWlLk6GJQsqaUBKTNV-1" source="IeuhUxRmmoXqAZpo1SSm-228" target="IeuhUxRmmoXqAZpo1SSm-176" edge="1">
          <mxGeometry width="50" height="50" relative="1" as="geometry">
            <mxPoint x="-1415" y="-570" as="sourcePoint" />
            <mxPoint x="-1404" y="-510" as="targetPoint" />
          </mxGeometry>
        </mxCell>
        <mxCell id="IeuhUxRmmoXqAZpo1SSm-190" value="1" style="text;html=1;align=center;verticalAlign=middle;resizable=0;points=[];autosize=1;strokeColor=none;fillColor=none;fontStyle=1;container=0;" parent="WIyWlLk6GJQsqaUBKTNV-1" vertex="1">
          <mxGeometry x="-1130" y="-488" width="30" height="30" as="geometry" />
        </mxCell>
        <mxCell id="IeuhUxRmmoXqAZpo1SSm-191" value="Review" style="swimlane;fontStyle=0;align=center;verticalAlign=top;childLayout=stackLayout;horizontal=1;startSize=26;horizontalStack=0;resizeParent=1;resizeLast=0;collapsible=1;marginBottom=0;rounded=0;shadow=0;strokeWidth=3;container=0;" parent="WIyWlLk6GJQsqaUBKTNV-1" vertex="1">
          <mxGeometry x="-2100" y="-770" width="340" height="160" as="geometry">
            <mxRectangle x="-370" y="-694.5" width="160" height="26" as="alternateBounds" />
          </mxGeometry>
        </mxCell>
        <mxCell id="IeuhUxRmmoXqAZpo1SSm-192" value="#id: int" style="text;align=left;verticalAlign=top;spacingLeft=4;spacingRight=4;overflow=hidden;rotatable=0;points=[[0,0.5],[1,0.5]];portConstraint=eastwest;container=0;" parent="IeuhUxRmmoXqAZpo1SSm-191" vertex="1">
          <mxGeometry y="26" width="340" height="26" as="geometry" />
        </mxCell>
        <mxCell id="IeuhUxRmmoXqAZpo1SSm-193" value="#rating: int" style="text;align=left;verticalAlign=top;spacingLeft=4;spacingRight=4;overflow=hidden;rotatable=0;points=[[0,0.5],[1,0.5]];portConstraint=eastwest;container=0;" parent="IeuhUxRmmoXqAZpo1SSm-191" vertex="1">
          <mxGeometry y="52" width="340" height="26" as="geometry" />
        </mxCell>
        <mxCell id="IeuhUxRmmoXqAZpo1SSm-194" value="#comment: String" style="text;align=left;verticalAlign=top;spacingLeft=4;spacingRight=4;overflow=hidden;rotatable=0;points=[[0,0.5],[1,0.5]];portConstraint=eastwest;container=0;" parent="IeuhUxRmmoXqAZpo1SSm-191" vertex="1">
          <mxGeometry y="78" width="340" height="26" as="geometry" />
        </mxCell>
        <mxCell id="IeuhUxRmmoXqAZpo1SSm-195" value="#customerId: int" style="text;align=left;verticalAlign=top;spacingLeft=4;spacingRight=4;overflow=hidden;rotatable=0;points=[[0,0.5],[1,0.5]];portConstraint=eastwest;container=0;" parent="IeuhUxRmmoXqAZpo1SSm-191" vertex="1">
          <mxGeometry y="104" width="340" height="26" as="geometry" />
        </mxCell>
        <mxCell id="IeuhUxRmmoXqAZpo1SSm-196" value="#providerId: int" style="text;align=left;verticalAlign=top;spacingLeft=4;spacingRight=4;overflow=hidden;rotatable=0;points=[[0,0.5],[1,0.5]];portConstraint=eastwest;container=0;" parent="IeuhUxRmmoXqAZpo1SSm-191" vertex="1">
          <mxGeometry y="130" width="340" height="26" as="geometry" />
        </mxCell>
        <mxCell id="IeuhUxRmmoXqAZpo1SSm-197" value="" style="endArrow=none;html=1;rounded=0;entryX=0.982;entryY=0.985;entryDx=0;entryDy=0;strokeWidth=2;entryPerimeter=0;startArrow=diamond;startFill=1;" parent="WIyWlLk6GJQsqaUBKTNV-1" target="IeuhUxRmmoXqAZpo1SSm-199" edge="1">
          <mxGeometry width="50" height="50" relative="1" as="geometry">
            <mxPoint x="-2330" y="-670" as="sourcePoint" />
            <mxPoint x="-2214.2" y="-734.45" as="targetPoint" />
          </mxGeometry>
        </mxCell>
        <mxCell id="IeuhUxRmmoXqAZpo1SSm-198" value="1&amp;nbsp;" style="text;html=1;align=center;verticalAlign=middle;resizable=0;points=[];autosize=1;strokeColor=none;fillColor=none;fontStyle=1;container=0;" parent="WIyWlLk6GJQsqaUBKTNV-1" vertex="1">
          <mxGeometry x="-2410" y="-558" width="30" height="30" as="geometry" />
        </mxCell>
        <mxCell id="IeuhUxRmmoXqAZpo1SSm-199" value="0 *" style="text;html=1;align=center;verticalAlign=middle;resizable=0;points=[];autosize=1;strokeColor=none;fillColor=none;fontStyle=1;container=0;" parent="WIyWlLk6GJQsqaUBKTNV-1" vertex="1">
          <mxGeometry x="-2140" y="-700" width="40" height="30" as="geometry" />
        </mxCell>
        <mxCell id="IeuhUxRmmoXqAZpo1SSm-200" value="" style="endArrow=none;html=1;rounded=0;exitX=1;exitY=0.5;exitDx=0;exitDy=0;strokeWidth=2;entryX=-0.003;entryY=0.156;entryDx=0;entryDy=0;entryPerimeter=0;" parent="WIyWlLk6GJQsqaUBKTNV-1" source="IeuhUxRmmoXqAZpo1SSm-206" target="IeuhUxRmmoXqAZpo1SSm-217" edge="1">
          <mxGeometry width="50" height="50" relative="1" as="geometry">
            <mxPoint x="-2100" y="-1194" as="sourcePoint" />
            <mxPoint x="-1920" y="-1150" as="targetPoint" />
          </mxGeometry>
        </mxCell>
        <mxCell id="IeuhUxRmmoXqAZpo1SSm-201" value="1&amp;nbsp;" style="text;html=1;align=center;verticalAlign=middle;resizable=0;points=[];autosize=1;strokeColor=none;fillColor=none;fontStyle=1;container=0;" parent="WIyWlLk6GJQsqaUBKTNV-1" vertex="1">
          <mxGeometry x="-2180" y="-1220" width="30" height="30" as="geometry" />
        </mxCell>
        <mxCell id="IeuhUxRmmoXqAZpo1SSm-202" value="" style="group" parent="WIyWlLk6GJQsqaUBKTNV-1" vertex="1" connectable="0">
          <mxGeometry x="-2410" y="-1270" width="230" height="180" as="geometry" />
        </mxCell>
        <mxCell id="IeuhUxRmmoXqAZpo1SSm-203" value="Admin" style="swimlane;fontStyle=2;align=center;verticalAlign=top;childLayout=stackLayout;horizontal=1;startSize=26;horizontalStack=0;resizeParent=1;resizeLast=0;collapsible=1;marginBottom=0;rounded=0;shadow=0;strokeWidth=3;container=0;" parent="IeuhUxRmmoXqAZpo1SSm-202" vertex="1">
          <mxGeometry width="229.99999999999997" height="180" as="geometry">
            <mxRectangle x="230" y="140" width="160" height="26" as="alternateBounds" />
          </mxGeometry>
        </mxCell>
        <mxCell id="IeuhUxRmmoXqAZpo1SSm-204" value="#user : List&lt;User&gt;" style="text;align=left;verticalAlign=top;spacingLeft=4;spacingRight=4;overflow=hidden;rotatable=0;points=[[0,0.5],[1,0.5]];portConstraint=eastwest;container=0;" parent="IeuhUxRmmoXqAZpo1SSm-202" vertex="1">
          <mxGeometry y="28.53658536585366" width="229.99999999999997" height="37.31707317073171" as="geometry" />
        </mxCell>
        <mxCell id="IeuhUxRmmoXqAZpo1SSm-205" value="" style="endArrow=none;html=1;rounded=0;entryX=0.999;entryY=0.755;entryDx=0;entryDy=0;entryPerimeter=0;" parent="IeuhUxRmmoXqAZpo1SSm-202" target="IeuhUxRmmoXqAZpo1SSm-204" edge="1">
          <mxGeometry width="50" height="50" relative="1" as="geometry">
            <mxPoint y="57.07317073170732" as="sourcePoint" />
            <mxPoint x="204.44444444444443" y="57.07317073170732" as="targetPoint" />
          </mxGeometry>
        </mxCell>
        <mxCell id="IeuhUxRmmoXqAZpo1SSm-206" value="+activateAccount(userId : int) : Boolean" style="text;align=left;verticalAlign=top;spacingLeft=4;spacingRight=4;overflow=hidden;rotatable=0;points=[[0,0.5],[1,0.5]];portConstraint=eastwest;container=0;" parent="IeuhUxRmmoXqAZpo1SSm-202" vertex="1">
          <mxGeometry y="65.85365853658537" width="229.99999999999997" height="28.53658536585366" as="geometry" />
        </mxCell>
        <mxCell id="IeuhUxRmmoXqAZpo1SSm-207" value="+disableAccount(userId : int)Â Â : Boolean" style="text;align=left;verticalAlign=top;spacingLeft=4;spacingRight=4;overflow=hidden;rotatable=0;points=[[0,0.5],[1,0.5]];portConstraint=eastwest;container=0;" parent="IeuhUxRmmoXqAZpo1SSm-202" vertex="1">
          <mxGeometry y="94.39024390243904" width="229.99999999999997" height="28.53658536585366" as="geometry" />
        </mxCell>
        <mxCell id="IeuhUxRmmoXqAZpo1SSm-208" value="+deleteAccount(userId : int)Â : Boolean" style="text;align=left;verticalAlign=top;spacingLeft=4;spacingRight=4;overflow=hidden;rotatable=0;points=[[0,0.5],[1,0.5]];portConstraint=eastwest;container=0;" parent="IeuhUxRmmoXqAZpo1SSm-202" vertex="1">
          <mxGeometry y="122.92682926829269" width="229.99999999999997" height="28.53658536585366" as="geometry" />
        </mxCell>
        <mxCell id="IeuhUxRmmoXqAZpo1SSm-209" value="+getUsers() : List&lt;User&gt;Â " style="text;align=left;verticalAlign=top;spacingLeft=4;spacingRight=4;overflow=hidden;rotatable=0;points=[[0,0.5],[1,0.5]];portConstraint=eastwest;container=0;" parent="IeuhUxRmmoXqAZpo1SSm-202" vertex="1">
          <mxGeometry y="151.46341463414635" width="229.99999999999997" height="28.53658536585366" as="geometry" />
        </mxCell>
        <mxCell id="IeuhUxRmmoXqAZpo1SSm-210" value="" style="group" parent="WIyWlLk6GJQsqaUBKTNV-1" vertex="1" connectable="0">
          <mxGeometry x="-1980" y="-1350" width="280" height="390" as="geometry" />
        </mxCell>
        <mxCell id="IeuhUxRmmoXqAZpo1SSm-211" value="User" style="swimlane;fontStyle=2;align=center;verticalAlign=top;childLayout=stackLayout;horizontal=1;startSize=26;horizontalStack=0;resizeParent=1;resizeLast=0;collapsible=1;marginBottom=0;rounded=0;shadow=0;strokeWidth=3;fontSize=13;container=0;" parent="IeuhUxRmmoXqAZpo1SSm-210" vertex="1">
          <mxGeometry width="280" height="390" as="geometry">
            <mxRectangle x="230" y="140" width="160" height="26" as="alternateBounds" />
          </mxGeometry>
        </mxCell>
        <mxCell id="IeuhUxRmmoXqAZpo1SSm-212" value="#id : int&#xa;" style="text;align=left;verticalAlign=top;spacingLeft=4;spacingRight=4;overflow=hidden;rotatable=0;points=[[0,0.5],[1,0.5]];portConstraint=eastwest;container=0;" parent="IeuhUxRmmoXqAZpo1SSm-210" vertex="1">
          <mxGeometry y="26" width="280" height="26" as="geometry" />
        </mxCell>
        <mxCell id="IeuhUxRmmoXqAZpo1SSm-213" value="#firstname: String" style="text;align=left;verticalAlign=top;spacingLeft=4;spacingRight=4;overflow=hidden;rotatable=0;points=[[0,0.5],[1,0.5]];portConstraint=eastwest;rounded=0;shadow=0;html=0;container=0;" parent="IeuhUxRmmoXqAZpo1SSm-210" vertex="1">
          <mxGeometry y="52" width="280" height="26" as="geometry" />
        </mxCell>
        <mxCell id="IeuhUxRmmoXqAZpo1SSm-214" value="#lastname: String" style="text;align=left;verticalAlign=top;spacingLeft=4;spacingRight=4;overflow=hidden;rotatable=0;points=[[0,0.5],[1,0.5]];portConstraint=eastwest;rounded=0;shadow=0;html=0;container=0;" parent="IeuhUxRmmoXqAZpo1SSm-210" vertex="1">
          <mxGeometry y="78" width="280" height="26" as="geometry" />
        </mxCell>
        <mxCell id="IeuhUxRmmoXqAZpo1SSm-215" value="#birthdate: Date" style="text;align=left;verticalAlign=top;spacingLeft=4;spacingRight=4;overflow=hidden;rotatable=0;points=[[0,0.5],[1,0.5]];portConstraint=eastwest;rounded=0;shadow=0;html=0;container=0;" parent="IeuhUxRmmoXqAZpo1SSm-210" vertex="1">
          <mxGeometry y="104" width="280" height="26" as="geometry" />
        </mxCell>
        <mxCell id="IeuhUxRmmoXqAZpo1SSm-216" value="#address: String" style="text;align=left;verticalAlign=top;spacingLeft=4;spacingRight=4;overflow=hidden;rotatable=0;points=[[0,0.5],[1,0.5]];portConstraint=eastwest;rounded=0;shadow=0;html=0;container=0;" parent="IeuhUxRmmoXqAZpo1SSm-210" vertex="1">
          <mxGeometry y="130" width="280" height="26" as="geometry" />
        </mxCell>
        <mxCell id="IeuhUxRmmoXqAZpo1SSm-217" value="#phonenumber: String" style="text;align=left;verticalAlign=top;spacingLeft=4;spacingRight=4;overflow=hidden;rotatable=0;points=[[0,0.5],[1,0.5]];portConstraint=eastwest;rounded=0;shadow=0;html=0;container=0;" parent="IeuhUxRmmoXqAZpo1SSm-210" vertex="1">
          <mxGeometry y="156" width="280" height="26" as="geometry" />
        </mxCell>
        <mxCell id="IeuhUxRmmoXqAZpo1SSm-218" value="#email: String" style="text;align=left;verticalAlign=top;spacingLeft=4;spacingRight=4;overflow=hidden;rotatable=0;points=[[0,0.5],[1,0.5]];portConstraint=eastwest;rounded=0;shadow=0;html=0;container=0;" parent="IeuhUxRmmoXqAZpo1SSm-210" vertex="1">
          <mxGeometry y="182" width="280" height="26" as="geometry" />
        </mxCell>
        <mxCell id="IeuhUxRmmoXqAZpo1SSm-219" value="#password: String" style="text;align=left;verticalAlign=top;spacingLeft=4;spacingRight=4;overflow=hidden;rotatable=0;points=[[0,0.5],[1,0.5]];portConstraint=eastwest;rounded=0;shadow=0;html=0;container=0;" parent="IeuhUxRmmoXqAZpo1SSm-210" vertex="1">
          <mxGeometry y="208" width="280" height="26" as="geometry" />
        </mxCell>
        <mxCell id="IeuhUxRmmoXqAZpo1SSm-220" value="#isActive: Boolean" style="text;align=left;verticalAlign=top;spacingLeft=4;spacingRight=4;overflow=hidden;rotatable=0;points=[[0,0.5],[1,0.5]];portConstraint=eastwest;rounded=0;shadow=0;html=0;container=0;" parent="IeuhUxRmmoXqAZpo1SSm-210" vertex="1">
          <mxGeometry y="234" width="280" height="26" as="geometry" />
        </mxCell>
        <mxCell id="IeuhUxRmmoXqAZpo1SSm-221" value="#role: RoleEnum" style="text;align=left;verticalAlign=top;spacingLeft=4;spacingRight=4;overflow=hidden;rotatable=0;points=[[0,0.5],[1,0.5]];portConstraint=eastwest;rounded=0;shadow=0;html=0;container=0;" parent="IeuhUxRmmoXqAZpo1SSm-210" vertex="1">
          <mxGeometry y="260" width="280" height="26" as="geometry" />
        </mxCell>
        <mxCell id="IeuhUxRmmoXqAZpo1SSm-222" value="" style="endArrow=none;html=1;rounded=0;" parent="IeuhUxRmmoXqAZpo1SSm-210" edge="1">
          <mxGeometry width="50" height="50" relative="1" as="geometry">
            <mxPoint y="286" as="sourcePoint" />
            <mxPoint x="280" y="286" as="targetPoint" />
          </mxGeometry>
        </mxCell>
        <mxCell id="IeuhUxRmmoXqAZpo1SSm-223" value="+signUp(): Boolean" style="text;align=left;verticalAlign=top;spacingLeft=4;spacingRight=4;overflow=hidden;rotatable=0;points=[[0,0.5],[1,0.5]];portConstraint=eastwest;rounded=0;shadow=0;html=0;container=0;" parent="IeuhUxRmmoXqAZpo1SSm-210" vertex="1">
          <mxGeometry y="286" width="280" height="26" as="geometry" />
        </mxCell>
        <mxCell id="IeuhUxRmmoXqAZpo1SSm-224" value="+signIn(email: String, password: String) : Boolean" style="text;align=left;verticalAlign=top;spacingLeft=4;spacingRight=4;overflow=hidden;rotatable=0;points=[[0,0.5],[1,0.5]];portConstraint=eastwest;rounded=0;shadow=0;html=0;container=0;" parent="IeuhUxRmmoXqAZpo1SSm-210" vertex="1">
          <mxGeometry y="312" width="280" height="26" as="geometry" />
        </mxCell>
        <mxCell id="IeuhUxRmmoXqAZpo1SSm-225" value="+update() : Boolean" style="text;align=left;verticalAlign=top;spacingLeft=4;spacingRight=4;overflow=hidden;rotatable=0;points=[[0,0.5],[1,0.5]];portConstraint=eastwest;rounded=0;shadow=0;html=0;container=0;" parent="IeuhUxRmmoXqAZpo1SSm-210" vertex="1">
          <mxGeometry y="338" width="280" height="26" as="geometry" />
        </mxCell>
        <mxCell id="IeuhUxRmmoXqAZpo1SSm-226" value="+disableAccount() : Boolean" style="text;align=left;verticalAlign=top;spacingLeft=4;spacingRight=4;overflow=hidden;rotatable=0;points=[[0,0.5],[1,0.5]];portConstraint=eastwest;rounded=0;shadow=0;html=0;container=0;" parent="IeuhUxRmmoXqAZpo1SSm-210" vertex="1">
          <mxGeometry y="364" width="280" height="26" as="geometry" />
        </mxCell>
        <mxCell id="IeuhUxRmmoXqAZpo1SSm-227" value="" style="group" parent="WIyWlLk6GJQsqaUBKTNV-1" vertex="1" connectable="0">
          <mxGeometry x="-1890" y="-330" width="550" height="260" as="geometry" />
        </mxCell>
        <mxCell id="IeuhUxRmmoXqAZpo1SSm-228" value="Schedule" style="swimlane;fontStyle=0;align=center;verticalAlign=top;childLayout=stackLayout;horizontal=1;startSize=26;horizontalStack=0;resizeParent=1;resizeLast=0;collapsible=1;marginBottom=0;rounded=0;shadow=0;strokeWidth=3;container=0;" parent="IeuhUxRmmoXqAZpo1SSm-227" vertex="1">
          <mxGeometry width="550" height="260" as="geometry">
            <mxRectangle x="130" y="380" width="160" height="26" as="alternateBounds" />
          </mxGeometry>
        </mxCell>
        <mxCell id="IeuhUxRmmoXqAZpo1SSm-229" value="#id:Â  int" style="text;align=left;verticalAlign=top;spacingLeft=4;spacingRight=4;overflow=hidden;rotatable=0;points=[[0,0.5],[1,0.5]];portConstraint=eastwest;container=0;" parent="IeuhUxRmmoXqAZpo1SSm-227" vertex="1">
          <mxGeometry y="26" width="550" height="26" as="geometry" />
        </mxCell>
        <mxCell id="IeuhUxRmmoXqAZpo1SSm-230" value="#dateAvailability: Date" style="text;align=left;verticalAlign=top;spacingLeft=4;spacingRight=4;overflow=hidden;rotatable=0;points=[[0,0.5],[1,0.5]];portConstraint=eastwest;rounded=0;shadow=0;html=0;container=0;" parent="IeuhUxRmmoXqAZpo1SSm-227" vertex="1">
          <mxGeometry y="52" width="550" height="26" as="geometry" />
        </mxCell>
        <mxCell id="IeuhUxRmmoXqAZpo1SSm-231" value="#startTime: Time" style="text;align=left;verticalAlign=top;spacingLeft=4;spacingRight=4;overflow=hidden;rotatable=0;points=[[0,0.5],[1,0.5]];portConstraint=eastwest;rounded=0;shadow=0;html=0;container=0;" parent="IeuhUxRmmoXqAZpo1SSm-227" vertex="1">
          <mxGeometry y="78" width="550" height="26" as="geometry" />
        </mxCell>
        <mxCell id="IeuhUxRmmoXqAZpo1SSm-232" value="#endTime: Time" style="text;align=left;verticalAlign=top;spacingLeft=4;spacingRight=4;overflow=hidden;rotatable=0;points=[[0,0.5],[1,0.5]];portConstraint=eastwest;rounded=0;shadow=0;html=0;container=0;" parent="IeuhUxRmmoXqAZpo1SSm-227" vertex="1">
          <mxGeometry y="104" width="550" height="26" as="geometry" />
        </mxCell>
        <mxCell id="IeuhUxRmmoXqAZpo1SSm-233" value="#providerId: int" style="text;align=left;verticalAlign=top;spacingLeft=4;spacingRight=4;overflow=hidden;rotatable=0;points=[[0,0.5],[1,0.5]];portConstraint=eastwest;rounded=0;shadow=0;html=0;container=0;" parent="IeuhUxRmmoXqAZpo1SSm-227" vertex="1">
          <mxGeometry y="130" width="550" height="26" as="geometry" />
        </mxCell>
        <mxCell id="IeuhUxRmmoXqAZpo1SSm-234" value="#serviceId: int" style="text;align=left;verticalAlign=top;spacingLeft=4;spacingRight=4;overflow=hidden;rotatable=0;points=[[0,0.5],[1,0.5]];portConstraint=eastwest;rounded=0;shadow=0;html=0;container=0;" parent="IeuhUxRmmoXqAZpo1SSm-227" vertex="1">
          <mxGeometry y="156" width="550" height="26" as="geometry" />
        </mxCell>
        <mxCell id="IeuhUxRmmoXqAZpo1SSm-235" value="" style="endArrow=none;html=1;rounded=0;" parent="IeuhUxRmmoXqAZpo1SSm-227" edge="1">
          <mxGeometry width="50" height="50" relative="1" as="geometry">
            <mxPoint y="181.75" as="sourcePoint" />
            <mxPoint x="550" y="181.75" as="targetPoint" />
            <Array as="points">
              <mxPoint x="275" y="181.75" />
            </Array>
          </mxGeometry>
        </mxCell>
        <mxCell id="IeuhUxRmmoXqAZpo1SSm-236" value="+addAvailability(date: Date, startTime: Time, endTime: Time, providerId: int, serviceId: int) : Schedule" style="text;align=left;verticalAlign=top;spacingLeft=4;spacingRight=4;overflow=hidden;rotatable=0;points=[[0,0.5],[1,0.5]];portConstraint=eastwest;rounded=0;shadow=0;html=0;container=0;" parent="IeuhUxRmmoXqAZpo1SSm-227" vertex="1">
          <mxGeometry y="182" width="550" height="26" as="geometry" />
        </mxCell>
        <mxCell id="IeuhUxRmmoXqAZpo1SSm-237" value="+updateAvailability(scheduleId: int, date: Date, startTime: Time, endTime: Time) : Boolean" style="text;align=left;verticalAlign=top;spacingLeft=4;spacingRight=4;overflow=hidden;rotatable=0;points=[[0,0.5],[1,0.5]];portConstraint=eastwest;rounded=0;shadow=0;html=0;container=0;" parent="IeuhUxRmmoXqAZpo1SSm-227" vertex="1">
          <mxGeometry y="208" width="550" height="26" as="geometry" />
        </mxCell>
        <mxCell id="IeuhUxRmmoXqAZpo1SSm-238" value="+deleteAvailability(scheduleId: int) : Boolean" style="text;align=left;verticalAlign=top;spacingLeft=4;spacingRight=4;overflow=hidden;rotatable=0;points=[[0,0.5],[1,0.5]];portConstraint=eastwest;rounded=0;shadow=0;html=0;container=0;" parent="IeuhUxRmmoXqAZpo1SSm-227" vertex="1">
          <mxGeometry y="234" width="550" height="26" as="geometry" />
        </mxCell>
        <mxCell id="IeuhUxRmmoXqAZpo1SSm-239" value="" style="group" parent="WIyWlLk6GJQsqaUBKTNV-1" vertex="1" connectable="0">
          <mxGeometry x="-1120" y="100" width="360" height="182" as="geometry" />
        </mxCell>
        <mxCell id="IeuhUxRmmoXqAZpo1SSm-240" value="Category" style="swimlane;fontStyle=0;align=center;verticalAlign=top;childLayout=stackLayout;horizontal=1;startSize=26;horizontalStack=0;resizeParent=1;resizeLast=0;collapsible=1;marginBottom=0;rounded=0;shadow=0;strokeWidth=3;container=0;" parent="IeuhUxRmmoXqAZpo1SSm-239" vertex="1">
          <mxGeometry width="360" height="182" as="geometry">
            <mxRectangle x="130" y="380" width="160" height="26" as="alternateBounds" />
          </mxGeometry>
        </mxCell>
        <mxCell id="IeuhUxRmmoXqAZpo1SSm-241" value="#id:Â  int" style="text;align=left;verticalAlign=top;spacingLeft=4;spacingRight=4;overflow=hidden;rotatable=0;points=[[0,0.5],[1,0.5]];portConstraint=eastwest;container=0;" parent="IeuhUxRmmoXqAZpo1SSm-239" vertex="1">
          <mxGeometry y="26" width="360" height="26" as="geometry" />
        </mxCell>
        <mxCell id="IeuhUxRmmoXqAZpo1SSm-242" value="#title: String" style="text;align=left;verticalAlign=top;spacingLeft=4;spacingRight=4;overflow=hidden;rotatable=0;points=[[0,0.5],[1,0.5]];portConstraint=eastwest;container=0;" parent="IeuhUxRmmoXqAZpo1SSm-239" vertex="1">
          <mxGeometry y="52" width="360" height="26" as="geometry" />
        </mxCell>
        <mxCell id="IeuhUxRmmoXqAZpo1SSm-243" value="#description : String" style="text;align=left;verticalAlign=top;spacingLeft=4;spacingRight=4;overflow=hidden;rotatable=0;points=[[0,0.5],[1,0.5]];portConstraint=eastwest;container=0;" parent="IeuhUxRmmoXqAZpo1SSm-239" vertex="1">
          <mxGeometry y="78" width="360" height="26" as="geometry" />
        </mxCell>
        <mxCell id="IeuhUxRmmoXqAZpo1SSm-244" value="" style="endArrow=none;html=1;rounded=0;" parent="IeuhUxRmmoXqAZpo1SSm-239" edge="1">
          <mxGeometry width="50" height="50" relative="1" as="geometry">
            <mxPoint y="100" as="sourcePoint" />
            <mxPoint x="360" y="100" as="targetPoint" />
          </mxGeometry>
        </mxCell>
        <mxCell id="IeuhUxRmmoXqAZpo1SSm-245" value="+addCategory(title: String, description: String) : Category" style="text;align=left;verticalAlign=top;spacingLeft=4;spacingRight=4;overflow=hidden;rotatable=0;points=[[0,0.5],[1,0.5]];portConstraint=eastwest;container=0;" parent="IeuhUxRmmoXqAZpo1SSm-239" vertex="1">
          <mxGeometry y="104" width="360" height="26" as="geometry" />
        </mxCell>
        <mxCell id="IeuhUxRmmoXqAZpo1SSm-246" value="+updateCategory(id: int, title: String, description: String) : Boolean" style="text;align=left;verticalAlign=top;spacingLeft=4;spacingRight=4;overflow=hidden;rotatable=0;points=[[0,0.5],[1,0.5]];portConstraint=eastwest;container=0;" parent="IeuhUxRmmoXqAZpo1SSm-239" vertex="1">
          <mxGeometry y="130" width="360" height="26" as="geometry" />
        </mxCell>
        <mxCell id="IeuhUxRmmoXqAZpo1SSm-247" value="+deleteCategory(id: int) : Boolean" style="text;align=left;verticalAlign=top;spacingLeft=4;spacingRight=4;overflow=hidden;rotatable=0;points=[[0,0.5],[1,0.5]];portConstraint=eastwest;container=0;" parent="IeuhUxRmmoXqAZpo1SSm-239" vertex="1">
          <mxGeometry y="156" width="360" height="26" as="geometry" />
        </mxCell>
        <mxCell id="IeuhUxRmmoXqAZpo1SSm-248" value="" style="endArrow=none;html=1;rounded=0;exitX=1;exitY=0.861;exitDx=0;exitDy=0;exitPerimeter=0;strokeWidth=2;entryX=0.967;entryY=1;entryDx=0;entryDy=0;entryPerimeter=0;" parent="WIyWlLk6GJQsqaUBKTNV-1" source="IeuhUxRmmoXqAZpo1SSm-194" target="IeuhUxRmmoXqAZpo1SSm-251" edge="1">
          <mxGeometry width="50" height="50" relative="1" as="geometry">
            <mxPoint x="-2060" y="-780" as="sourcePoint" />
            <mxPoint x="-1681" y="-670" as="targetPoint" />
          </mxGeometry>
        </mxCell>
        <mxCell id="IeuhUxRmmoXqAZpo1SSm-249" value="0 *" style="text;html=1;align=center;verticalAlign=middle;resizable=0;points=[];autosize=1;strokeColor=none;fillColor=none;fontStyle=1;container=0;" parent="WIyWlLk6GJQsqaUBKTNV-1" vertex="1">
          <mxGeometry x="-2020" y="-1220" width="40" height="30" as="geometry" />
        </mxCell>
        <mxCell id="IeuhUxRmmoXqAZpo1SSm-250" value="0*" style="text;html=1;align=center;verticalAlign=middle;resizable=0;points=[];autosize=1;strokeColor=none;fillColor=none;fontStyle=1;container=0;" parent="WIyWlLk6GJQsqaUBKTNV-1" vertex="1">
          <mxGeometry x="-1760" y="-700" width="30" height="30" as="geometry" />
        </mxCell>
        <mxCell id="IeuhUxRmmoXqAZpo1SSm-251" value="1&amp;nbsp;" style="text;html=1;align=center;verticalAlign=middle;resizable=0;points=[];autosize=1;strokeColor=none;fillColor=none;fontStyle=1;container=0;" parent="WIyWlLk6GJQsqaUBKTNV-1" vertex="1">
          <mxGeometry x="-1550" y="-700" width="30" height="30" as="geometry" />
        </mxCell>
        <mxCell id="IeuhUxRmmoXqAZpo1SSm-252" value="" style="endArrow=none;html=1;rounded=0;fontSize=12;startSize=8;endSize=8;strokeWidth=2;exitX=1;exitY=0;exitDx=0;exitDy=0;entryX=-0.001;entryY=0.334;entryDx=0;entryDy=0;entryPerimeter=0;" parent="WIyWlLk6GJQsqaUBKTNV-1" source="IeuhUxRmmoXqAZpo1SSm-132" target="IeuhUxRmmoXqAZpo1SSm-174" edge="1">
          <mxGeometry width="50" height="50" relative="1" as="geometry">
            <mxPoint x="-2080" y="-320" as="sourcePoint" />
            <mxPoint x="-1669" y="-394" as="targetPoint" />
          </mxGeometry>
        </mxCell>
        <mxCell id="IeuhUxRmmoXqAZpo1SSm-253" value="" style="endArrow=none;html=1;rounded=0;endFill=0;strokeWidth=2;startSize=6;startFill=1;startArrow=diamond;exitX=0.219;exitY=0.969;exitDx=0;exitDy=0;exitPerimeter=0;" parent="WIyWlLk6GJQsqaUBKTNV-1" source="IeuhUxRmmoXqAZpo1SSm-188" edge="1">
          <mxGeometry width="50" height="50" relative="1" as="geometry">
            <mxPoint x="-2120" y="-210" as="sourcePoint" />
            <mxPoint x="-1890" y="-230" as="targetPoint" />
          </mxGeometry>
        </mxCell>
        <mxCell id="IeuhUxRmmoXqAZpo1SSm-254" value="" style="endArrow=none;html=1;rounded=0;exitX=1;exitY=0.861;exitDx=0;exitDy=0;exitPerimeter=0;strokeWidth=2;entryX=0.5;entryY=0;entryDx=0;entryDy=0;edgeStyle=orthogonalEdgeStyle;" parent="WIyWlLk6GJQsqaUBKTNV-1" target="IeuhUxRmmoXqAZpo1SSm-165" edge="1">
          <mxGeometry width="50" height="50" relative="1" as="geometry">
            <mxPoint x="-1842.5" y="-880" as="sourcePoint" />
            <mxPoint x="-1607.5" y="-880" as="targetPoint" />
          </mxGeometry>
        </mxCell>
        <mxCell id="IeuhUxRmmoXqAZpo1SSm-255" value="0 *" style="text;html=1;align=center;verticalAlign=middle;resizable=0;points=[];autosize=1;strokeColor=none;fillColor=none;fontStyle=1;container=0;" parent="WIyWlLk6GJQsqaUBKTNV-1" vertex="1">
          <mxGeometry x="-1320" y="20" width="40" height="30" as="geometry" />
        </mxCell>
        <mxCell id="IeuhUxRmmoXqAZpo1SSm-256" value="1" style="text;html=1;align=center;verticalAlign=middle;resizable=0;points=[];autosize=1;strokeColor=none;fillColor=none;fontStyle=1;container=0;" parent="WIyWlLk6GJQsqaUBKTNV-1" vertex="1">
          <mxGeometry x="-1550" y="-580" width="30" height="30" as="geometry" />
        </mxCell>
        <mxCell id="IeuhUxRmmoXqAZpo1SSm-257" value="0 *" style="text;html=1;align=center;verticalAlign=middle;resizable=0;points=[];autosize=1;strokeColor=none;fillColor=none;fontStyle=1;container=0;" parent="WIyWlLk6GJQsqaUBKTNV-1" vertex="1">
          <mxGeometry x="-2160" y="-402" width="40" height="30" as="geometry" />
        </mxCell>
        <mxCell id="IeuhUxRmmoXqAZpo1SSm-258" value="1" style="text;html=1;align=center;verticalAlign=middle;resizable=0;points=[];autosize=1;strokeColor=none;fillColor=none;fontStyle=1;container=0;" parent="WIyWlLk6GJQsqaUBKTNV-1" vertex="1">
          <mxGeometry x="-2280" y="-160" width="30" height="30" as="geometry" />
        </mxCell>
        <mxCell id="IeuhUxRmmoXqAZpo1SSm-259" value="0 *" style="text;html=1;align=center;verticalAlign=middle;resizable=0;points=[];autosize=1;strokeColor=none;fillColor=none;fontStyle=1;container=0;" parent="WIyWlLk6GJQsqaUBKTNV-1" vertex="1">
          <mxGeometry x="-1900" y="210" width="40" height="30" as="geometry" />
        </mxCell>
        <mxCell id="IeuhUxRmmoXqAZpo1SSm-260" value="" style="endArrow=none;endSize=10;endFill=0;shadow=0;strokeWidth=2;rounded=0;elbow=vertical;startFill=0;entryX=0.604;entryY=1.038;entryDx=0;entryDy=0;entryPerimeter=0;exitX=0.5;exitY=0;exitDx=0;exitDy=0;" parent="WIyWlLk6GJQsqaUBKTNV-1" source="IeuhUxRmmoXqAZpo1SSm-142" target="IeuhUxRmmoXqAZpo1SSm-238" edge="1">
          <mxGeometry width="160" relative="1" as="geometry">
            <mxPoint x="-1710" y="40" as="sourcePoint" />
            <mxPoint x="-1573" y="-10" as="targetPoint" />
          </mxGeometry>
        </mxCell>
        <mxCell id="IeuhUxRmmoXqAZpo1SSm-261" value="1" style="text;html=1;align=center;verticalAlign=middle;resizable=0;points=[];autosize=1;strokeColor=none;fillColor=none;fontStyle=1;container=0;" parent="WIyWlLk6GJQsqaUBKTNV-1" vertex="1">
          <mxGeometry x="-1590" y="-70" width="30" height="30" as="geometry" />
        </mxCell>
        <mxCell id="IeuhUxRmmoXqAZpo1SSm-262" value="0 *" style="text;html=1;align=center;verticalAlign=middle;resizable=0;points=[];autosize=1;strokeColor=none;fillColor=none;fontStyle=1;container=0;" parent="WIyWlLk6GJQsqaUBKTNV-1" vertex="1">
          <mxGeometry x="-1595" y="20" width="40" height="30" as="geometry" />
        </mxCell>
        <mxCell id="IeuhUxRmmoXqAZpo1SSm-263" value="" style="endArrow=none;html=1;rounded=0;endFill=0;strokeWidth=2;startSize=6;startFill=0;entryX=0.862;entryY=0.967;entryDx=0;entryDy=0;entryPerimeter=0;exitX=0.807;exitY=1.026;exitDx=0;exitDy=0;exitPerimeter=0;startArrow=diamond;" parent="WIyWlLk6GJQsqaUBKTNV-1" source="IeuhUxRmmoXqAZpo1SSm-176" target="IeuhUxRmmoXqAZpo1SSm-255" edge="1">
          <mxGeometry width="50" height="50" relative="1" as="geometry">
            <mxPoint x="-1414" y="-400" as="sourcePoint" />
            <mxPoint x="-1423.1599999999999" y="-460.16" as="targetPoint" />
          </mxGeometry>
        </mxCell>
        <mxCell id="IeuhUxRmmoXqAZpo1SSm-284" value="User" style="shape=table;startSize=30;container=1;collapsible=1;childLayout=tableLayout;fixedRows=1;rowLines=0;fontStyle=1;align=center;resizeLast=1;html=1;" parent="WIyWlLk6GJQsqaUBKTNV-1" vertex="1">
          <mxGeometry x="130" y="-60" width="220" height="330" as="geometry" />
        </mxCell>
        <mxCell id="IeuhUxRmmoXqAZpo1SSm-285" value="" style="shape=tableRow;horizontal=0;startSize=0;swimlaneHead=0;swimlaneBody=0;fillColor=none;collapsible=0;dropTarget=0;points=[[0,0.5],[1,0.5]];portConstraint=eastwest;top=0;left=0;right=0;bottom=1;" parent="IeuhUxRmmoXqAZpo1SSm-284" vertex="1">
          <mxGeometry y="30" width="220" height="30" as="geometry" />
        </mxCell>
        <mxCell id="IeuhUxRmmoXqAZpo1SSm-286" value="PK" style="shape=partialRectangle;connectable=0;fillColor=none;top=0;left=0;bottom=0;right=0;fontStyle=1;overflow=hidden;whiteSpace=wrap;html=1;" parent="IeuhUxRmmoXqAZpo1SSm-285" vertex="1">
          <mxGeometry width="30" height="30" as="geometry">
            <mxRectangle width="30" height="30" as="alternateBounds" />
          </mxGeometry>
        </mxCell>
        <mxCell id="IeuhUxRmmoXqAZpo1SSm-287" value="id: INT" style="shape=partialRectangle;connectable=0;fillColor=none;top=0;left=0;bottom=0;right=0;align=left;spacingLeft=6;fontStyle=5;overflow=hidden;whiteSpace=wrap;html=1;" parent="IeuhUxRmmoXqAZpo1SSm-285" vertex="1">
          <mxGeometry x="30" width="190" height="30" as="geometry">
            <mxRectangle width="190" height="30" as="alternateBounds" />
          </mxGeometry>
        </mxCell>
        <mxCell id="IeuhUxRmmoXqAZpo1SSm-288" value="" style="shape=tableRow;horizontal=0;startSize=0;swimlaneHead=0;swimlaneBody=0;fillColor=none;collapsible=0;dropTarget=0;points=[[0,0.5],[1,0.5]];portConstraint=eastwest;top=0;left=0;right=0;bottom=0;" parent="IeuhUxRmmoXqAZpo1SSm-284" vertex="1">
          <mxGeometry y="60" width="220" height="30" as="geometry" />
        </mxCell>
        <mxCell id="IeuhUxRmmoXqAZpo1SSm-289" value="" style="shape=partialRectangle;connectable=0;fillColor=none;top=0;left=0;bottom=0;right=0;editable=1;overflow=hidden;whiteSpace=wrap;html=1;" parent="IeuhUxRmmoXqAZpo1SSm-288" vertex="1">
          <mxGeometry width="30" height="30" as="geometry">
            <mxRectangle width="30" height="30" as="alternateBounds" />
          </mxGeometry>
        </mxCell>
        <mxCell id="IeuhUxRmmoXqAZpo1SSm-290" value="firstname : STRING" style="shape=partialRectangle;connectable=0;fillColor=none;top=0;left=0;bottom=0;right=0;align=left;spacingLeft=6;overflow=hidden;whiteSpace=wrap;html=1;" parent="IeuhUxRmmoXqAZpo1SSm-288" vertex="1">
          <mxGeometry x="30" width="190" height="30" as="geometry">
            <mxRectangle width="190" height="30" as="alternateBounds" />
          </mxGeometry>
        </mxCell>
        <mxCell id="IeuhUxRmmoXqAZpo1SSm-291" value="" style="shape=tableRow;horizontal=0;startSize=0;swimlaneHead=0;swimlaneBody=0;fillColor=none;collapsible=0;dropTarget=0;points=[[0,0.5],[1,0.5]];portConstraint=eastwest;top=0;left=0;right=0;bottom=0;" parent="IeuhUxRmmoXqAZpo1SSm-284" vertex="1">
          <mxGeometry y="90" width="220" height="30" as="geometry" />
        </mxCell>
        <mxCell id="IeuhUxRmmoXqAZpo1SSm-292" value="" style="shape=partialRectangle;connectable=0;fillColor=none;top=0;left=0;bottom=0;right=0;editable=1;overflow=hidden;whiteSpace=wrap;html=1;" parent="IeuhUxRmmoXqAZpo1SSm-291" vertex="1">
          <mxGeometry width="30" height="30" as="geometry">
            <mxRectangle width="30" height="30" as="alternateBounds" />
          </mxGeometry>
        </mxCell>
        <mxCell id="IeuhUxRmmoXqAZpo1SSm-293" value="lastname: STRING" style="shape=partialRectangle;connectable=0;fillColor=none;top=0;left=0;bottom=0;right=0;align=left;spacingLeft=6;overflow=hidden;whiteSpace=wrap;html=1;" parent="IeuhUxRmmoXqAZpo1SSm-291" vertex="1">
          <mxGeometry x="30" width="190" height="30" as="geometry">
            <mxRectangle width="190" height="30" as="alternateBounds" />
          </mxGeometry>
        </mxCell>
        <mxCell id="IeuhUxRmmoXqAZpo1SSm-294" value="" style="shape=tableRow;horizontal=0;startSize=0;swimlaneHead=0;swimlaneBody=0;fillColor=none;collapsible=0;dropTarget=0;points=[[0,0.5],[1,0.5]];portConstraint=eastwest;top=0;left=0;right=0;bottom=0;" parent="IeuhUxRmmoXqAZpo1SSm-284" vertex="1">
          <mxGeometry y="120" width="220" height="30" as="geometry" />
        </mxCell>
        <mxCell id="IeuhUxRmmoXqAZpo1SSm-295" value="" style="shape=partialRectangle;connectable=0;fillColor=none;top=0;left=0;bottom=0;right=0;editable=1;overflow=hidden;whiteSpace=wrap;html=1;" parent="IeuhUxRmmoXqAZpo1SSm-294" vertex="1">
          <mxGeometry width="30" height="30" as="geometry">
            <mxRectangle width="30" height="30" as="alternateBounds" />
          </mxGeometry>
        </mxCell>
        <mxCell id="IeuhUxRmmoXqAZpo1SSm-296" value="email: STRING {Not Null, Unique}" style="shape=partialRectangle;connectable=0;fillColor=none;top=0;left=0;bottom=0;right=0;align=left;spacingLeft=6;overflow=hidden;whiteSpace=wrap;html=1;" parent="IeuhUxRmmoXqAZpo1SSm-294" vertex="1">
          <mxGeometry x="30" width="190" height="30" as="geometry">
            <mxRectangle width="190" height="30" as="alternateBounds" />
          </mxGeometry>
        </mxCell>
        <mxCell id="SoccBnHSWLBsHFDYlzGv-0" value="" style="shape=tableRow;horizontal=0;startSize=0;swimlaneHead=0;swimlaneBody=0;fillColor=none;collapsible=0;dropTarget=0;points=[[0,0.5],[1,0.5]];portConstraint=eastwest;top=0;left=0;right=0;bottom=0;" vertex="1" parent="IeuhUxRmmoXqAZpo1SSm-284">
          <mxGeometry y="150" width="220" height="30" as="geometry" />
        </mxCell>
        <mxCell id="SoccBnHSWLBsHFDYlzGv-1" value="" style="shape=partialRectangle;connectable=0;fillColor=none;top=0;left=0;bottom=0;right=0;editable=1;overflow=hidden;whiteSpace=wrap;html=1;" vertex="1" parent="SoccBnHSWLBsHFDYlzGv-0">
          <mxGeometry width="30" height="30" as="geometry">
            <mxRectangle width="30" height="30" as="alternateBounds" />
          </mxGeometry>
        </mxCell>
        <mxCell id="SoccBnHSWLBsHFDYlzGv-2" value="password: STRING {Not Null}" style="shape=partialRectangle;connectable=0;fillColor=none;top=0;left=0;bottom=0;right=0;align=left;spacingLeft=6;overflow=hidden;whiteSpace=wrap;html=1;" vertex="1" parent="SoccBnHSWLBsHFDYlzGv-0">
          <mxGeometry x="30" width="190" height="30" as="geometry">
            <mxRectangle width="190" height="30" as="alternateBounds" />
          </mxGeometry>
        </mxCell>
        <mxCell id="SoccBnHSWLBsHFDYlzGv-3" value="" style="shape=tableRow;horizontal=0;startSize=0;swimlaneHead=0;swimlaneBody=0;fillColor=none;collapsible=0;dropTarget=0;points=[[0,0.5],[1,0.5]];portConstraint=eastwest;top=0;left=0;right=0;bottom=0;" vertex="1" parent="IeuhUxRmmoXqAZpo1SSm-284">
          <mxGeometry y="180" width="220" height="30" as="geometry" />
        </mxCell>
        <mxCell id="SoccBnHSWLBsHFDYlzGv-4" value="" style="shape=partialRectangle;connectable=0;fillColor=none;top=0;left=0;bottom=0;right=0;editable=1;overflow=hidden;whiteSpace=wrap;html=1;" vertex="1" parent="SoccBnHSWLBsHFDYlzGv-3">
          <mxGeometry width="30" height="30" as="geometry">
            <mxRectangle width="30" height="30" as="alternateBounds" />
          </mxGeometry>
        </mxCell>
        <mxCell id="SoccBnHSWLBsHFDYlzGv-5" value="birthdate: DATE" style="shape=partialRectangle;connectable=0;fillColor=none;top=0;left=0;bottom=0;right=0;align=left;spacingLeft=6;overflow=hidden;whiteSpace=wrap;html=1;" vertex="1" parent="SoccBnHSWLBsHFDYlzGv-3">
          <mxGeometry x="30" width="190" height="30" as="geometry">
            <mxRectangle width="190" height="30" as="alternateBounds" />
          </mxGeometry>
        </mxCell>
        <mxCell id="SoccBnHSWLBsHFDYlzGv-6" value="" style="shape=tableRow;horizontal=0;startSize=0;swimlaneHead=0;swimlaneBody=0;fillColor=none;collapsible=0;dropTarget=0;points=[[0,0.5],[1,0.5]];portConstraint=eastwest;top=0;left=0;right=0;bottom=0;" vertex="1" parent="IeuhUxRmmoXqAZpo1SSm-284">
          <mxGeometry y="210" width="220" height="30" as="geometry" />
        </mxCell>
        <mxCell id="SoccBnHSWLBsHFDYlzGv-7" value="" style="shape=partialRectangle;connectable=0;fillColor=none;top=0;left=0;bottom=0;right=0;editable=1;overflow=hidden;whiteSpace=wrap;html=1;" vertex="1" parent="SoccBnHSWLBsHFDYlzGv-6">
          <mxGeometry width="30" height="30" as="geometry">
            <mxRectangle width="30" height="30" as="alternateBounds" />
          </mxGeometry>
        </mxCell>
        <mxCell id="SoccBnHSWLBsHFDYlzGv-8" value="address: STRING" style="shape=partialRectangle;connectable=0;fillColor=none;top=0;left=0;bottom=0;right=0;align=left;spacingLeft=6;overflow=hidden;whiteSpace=wrap;html=1;" vertex="1" parent="SoccBnHSWLBsHFDYlzGv-6">
          <mxGeometry x="30" width="190" height="30" as="geometry">
            <mxRectangle width="190" height="30" as="alternateBounds" />
          </mxGeometry>
        </mxCell>
        <mxCell id="SoccBnHSWLBsHFDYlzGv-9" value="" style="shape=tableRow;horizontal=0;startSize=0;swimlaneHead=0;swimlaneBody=0;fillColor=none;collapsible=0;dropTarget=0;points=[[0,0.5],[1,0.5]];portConstraint=eastwest;top=0;left=0;right=0;bottom=0;" vertex="1" parent="IeuhUxRmmoXqAZpo1SSm-284">
          <mxGeometry y="240" width="220" height="30" as="geometry" />
        </mxCell>
        <mxCell id="SoccBnHSWLBsHFDYlzGv-10" value="" style="shape=partialRectangle;connectable=0;fillColor=none;top=0;left=0;bottom=0;right=0;editable=1;overflow=hidden;whiteSpace=wrap;html=1;" vertex="1" parent="SoccBnHSWLBsHFDYlzGv-9">
          <mxGeometry width="30" height="30" as="geometry">
            <mxRectangle width="30" height="30" as="alternateBounds" />
          </mxGeometry>
        </mxCell>
        <mxCell id="SoccBnHSWLBsHFDYlzGv-11" value="phonenumber: STRING" style="shape=partialRectangle;connectable=0;fillColor=none;top=0;left=0;bottom=0;right=0;align=left;spacingLeft=6;overflow=hidden;whiteSpace=wrap;html=1;" vertex="1" parent="SoccBnHSWLBsHFDYlzGv-9">
          <mxGeometry x="30" width="190" height="30" as="geometry">
            <mxRectangle width="190" height="30" as="alternateBounds" />
          </mxGeometry>
        </mxCell>
        <mxCell id="SoccBnHSWLBsHFDYlzGv-12" value="" style="shape=tableRow;horizontal=0;startSize=0;swimlaneHead=0;swimlaneBody=0;fillColor=none;collapsible=0;dropTarget=0;points=[[0,0.5],[1,0.5]];portConstraint=eastwest;top=0;left=0;right=0;bottom=0;" vertex="1" parent="IeuhUxRmmoXqAZpo1SSm-284">
          <mxGeometry y="270" width="220" height="30" as="geometry" />
        </mxCell>
        <mxCell id="SoccBnHSWLBsHFDYlzGv-13" value="" style="shape=partialRectangle;connectable=0;fillColor=none;top=0;left=0;bottom=0;right=0;editable=1;overflow=hidden;whiteSpace=wrap;html=1;" vertex="1" parent="SoccBnHSWLBsHFDYlzGv-12">
          <mxGeometry width="30" height="30" as="geometry">
            <mxRectangle width="30" height="30" as="alternateBounds" />
          </mxGeometry>
        </mxCell>
        <mxCell id="SoccBnHSWLBsHFDYlzGv-14" value="role: ENUM" style="shape=partialRectangle;connectable=0;fillColor=none;top=0;left=0;bottom=0;right=0;align=left;spacingLeft=6;overflow=hidden;whiteSpace=wrap;html=1;" vertex="1" parent="SoccBnHSWLBsHFDYlzGv-12">
          <mxGeometry x="30" width="190" height="30" as="geometry">
            <mxRectangle width="190" height="30" as="alternateBounds" />
          </mxGeometry>
        </mxCell>
        <mxCell id="SoccBnHSWLBsHFDYlzGv-15" value="" style="shape=tableRow;horizontal=0;startSize=0;swimlaneHead=0;swimlaneBody=0;fillColor=none;collapsible=0;dropTarget=0;points=[[0,0.5],[1,0.5]];portConstraint=eastwest;top=0;left=0;right=0;bottom=0;" vertex="1" parent="IeuhUxRmmoXqAZpo1SSm-284">
          <mxGeometry y="300" width="220" height="30" as="geometry" />
        </mxCell>
        <mxCell id="SoccBnHSWLBsHFDYlzGv-16" value="" style="shape=partialRectangle;connectable=0;fillColor=none;top=0;left=0;bottom=0;right=0;editable=1;overflow=hidden;whiteSpace=wrap;html=1;" vertex="1" parent="SoccBnHSWLBsHFDYlzGv-15">
          <mxGeometry width="30" height="30" as="geometry">
            <mxRectangle width="30" height="30" as="alternateBounds" />
          </mxGeometry>
        </mxCell>
        <mxCell id="SoccBnHSWLBsHFDYlzGv-17" value="isActive: BOOLEAN" style="shape=partialRectangle;connectable=0;fillColor=none;top=0;left=0;bottom=0;right=0;align=left;spacingLeft=6;overflow=hidden;whiteSpace=wrap;html=1;" vertex="1" parent="SoccBnHSWLBsHFDYlzGv-15">
          <mxGeometry x="30" width="190" height="30" as="geometry">
            <mxRectangle width="190" height="30" as="alternateBounds" />
          </mxGeometry>
        </mxCell>
        <mxCell id="SoccBnHSWLBsHFDYlzGv-18" value="Customer" style="shape=table;startSize=30;container=1;collapsible=1;childLayout=tableLayout;fixedRows=1;rowLines=0;fontStyle=1;align=center;resizeLast=1;html=1;" vertex="1" parent="WIyWlLk6GJQsqaUBKTNV-1">
          <mxGeometry x="-305" y="370" width="220" height="70" as="geometry" />
        </mxCell>
        <mxCell id="SoccBnHSWLBsHFDYlzGv-19" value="" style="shape=tableRow;horizontal=0;startSize=0;swimlaneHead=0;swimlaneBody=0;fillColor=none;collapsible=0;dropTarget=0;points=[[0,0.5],[1,0.5]];portConstraint=eastwest;top=0;left=0;right=0;bottom=1;" vertex="1" parent="SoccBnHSWLBsHFDYlzGv-18">
          <mxGeometry y="30" width="220" height="40" as="geometry" />
        </mxCell>
        <mxCell id="SoccBnHSWLBsHFDYlzGv-20" value="PK&lt;div&gt;FK&lt;/div&gt;" style="shape=partialRectangle;connectable=0;fillColor=none;top=0;left=0;bottom=0;right=0;fontStyle=1;overflow=hidden;whiteSpace=wrap;html=1;" vertex="1" parent="SoccBnHSWLBsHFDYlzGv-19">
          <mxGeometry width="30" height="40" as="geometry">
            <mxRectangle width="30" height="40" as="alternateBounds" />
          </mxGeometry>
        </mxCell>
        <mxCell id="SoccBnHSWLBsHFDYlzGv-21" value="id: INT" style="shape=partialRectangle;connectable=0;fillColor=none;top=0;left=0;bottom=0;right=0;align=left;spacingLeft=6;fontStyle=5;overflow=hidden;whiteSpace=wrap;html=1;" vertex="1" parent="SoccBnHSWLBsHFDYlzGv-19">
          <mxGeometry x="30" width="190" height="40" as="geometry">
            <mxRectangle width="190" height="40" as="alternateBounds" />
          </mxGeometry>
        </mxCell>
        <mxCell id="SoccBnHSWLBsHFDYlzGv-49" value="Provider" style="shape=table;startSize=30;container=1;collapsible=1;childLayout=tableLayout;fixedRows=1;rowLines=0;fontStyle=1;align=center;resizeLast=1;html=1;" vertex="1" parent="WIyWlLk6GJQsqaUBKTNV-1">
          <mxGeometry x="480" y="380" width="220" height="70" as="geometry" />
        </mxCell>
        <mxCell id="SoccBnHSWLBsHFDYlzGv-50" value="" style="shape=tableRow;horizontal=0;startSize=0;swimlaneHead=0;swimlaneBody=0;fillColor=none;collapsible=0;dropTarget=0;points=[[0,0.5],[1,0.5]];portConstraint=eastwest;top=0;left=0;right=0;bottom=1;" vertex="1" parent="SoccBnHSWLBsHFDYlzGv-49">
          <mxGeometry y="30" width="220" height="40" as="geometry" />
        </mxCell>
        <mxCell id="SoccBnHSWLBsHFDYlzGv-51" value="PK&lt;div&gt;FK&lt;/div&gt;" style="shape=partialRectangle;connectable=0;fillColor=none;top=0;left=0;bottom=0;right=0;fontStyle=1;overflow=hidden;whiteSpace=wrap;html=1;" vertex="1" parent="SoccBnHSWLBsHFDYlzGv-50">
          <mxGeometry width="30" height="40" as="geometry">
            <mxRectangle width="30" height="40" as="alternateBounds" />
          </mxGeometry>
        </mxCell>
        <mxCell id="SoccBnHSWLBsHFDYlzGv-52" value="id : INT" style="shape=partialRectangle;connectable=0;fillColor=none;top=0;left=0;bottom=0;right=0;align=left;spacingLeft=6;fontStyle=5;overflow=hidden;whiteSpace=wrap;html=1;" vertex="1" parent="SoccBnHSWLBsHFDYlzGv-50">
          <mxGeometry x="30" width="190" height="40" as="geometry">
            <mxRectangle width="190" height="40" as="alternateBounds" />
          </mxGeometry>
        </mxCell>
        <mxCell id="SoccBnHSWLBsHFDYlzGv-80" value="Admin" style="shape=table;startSize=30;container=1;collapsible=1;childLayout=tableLayout;fixedRows=1;rowLines=0;fontStyle=1;align=center;resizeLast=1;html=1;" vertex="1" parent="WIyWlLk6GJQsqaUBKTNV-1">
          <mxGeometry x="-290" y="20" width="190" height="83" as="geometry" />
        </mxCell>
        <mxCell id="SoccBnHSWLBsHFDYlzGv-81" value="" style="shape=tableRow;horizontal=0;startSize=0;swimlaneHead=0;swimlaneBody=0;fillColor=none;collapsible=0;dropTarget=0;points=[[0,0.5],[1,0.5]];portConstraint=eastwest;top=0;left=0;right=0;bottom=1;" vertex="1" parent="SoccBnHSWLBsHFDYlzGv-80">
          <mxGeometry y="30" width="190" height="53" as="geometry" />
        </mxCell>
        <mxCell id="SoccBnHSWLBsHFDYlzGv-82" value="PK FK" style="shape=partialRectangle;connectable=0;fillColor=none;top=0;left=0;bottom=0;right=0;fontStyle=1;overflow=hidden;whiteSpace=wrap;html=1;" vertex="1" parent="SoccBnHSWLBsHFDYlzGv-81">
          <mxGeometry width="30" height="53" as="geometry">
            <mxRectangle width="30" height="53" as="alternateBounds" />
          </mxGeometry>
        </mxCell>
        <mxCell id="SoccBnHSWLBsHFDYlzGv-83" value="id: INT" style="shape=partialRectangle;connectable=0;fillColor=none;top=0;left=0;bottom=0;right=0;align=left;spacingLeft=6;fontStyle=5;overflow=hidden;whiteSpace=wrap;html=1;" vertex="1" parent="SoccBnHSWLBsHFDYlzGv-81">
          <mxGeometry x="30" width="160" height="53" as="geometry">
            <mxRectangle width="160" height="53" as="alternateBounds" />
          </mxGeometry>
        </mxCell>
        <mxCell id="SoccBnHSWLBsHFDYlzGv-111" value="Review" style="shape=table;startSize=20;container=1;collapsible=1;childLayout=tableLayout;fixedRows=1;rowLines=0;fontStyle=1;align=center;resizeLast=1;html=1;" vertex="1" parent="WIyWlLk6GJQsqaUBKTNV-1">
          <mxGeometry x="50" y="570" width="220" height="170" as="geometry" />
        </mxCell>
        <mxCell id="SoccBnHSWLBsHFDYlzGv-112" value="" style="shape=tableRow;horizontal=0;startSize=0;swimlaneHead=0;swimlaneBody=0;fillColor=none;collapsible=0;dropTarget=0;points=[[0,0.5],[1,0.5]];portConstraint=eastwest;top=0;left=0;right=0;bottom=1;" vertex="1" parent="SoccBnHSWLBsHFDYlzGv-111">
          <mxGeometry y="20" width="220" height="30" as="geometry" />
        </mxCell>
        <mxCell id="SoccBnHSWLBsHFDYlzGv-113" value="PK" style="shape=partialRectangle;connectable=0;fillColor=none;top=0;left=0;bottom=0;right=0;fontStyle=1;overflow=hidden;whiteSpace=wrap;html=1;" vertex="1" parent="SoccBnHSWLBsHFDYlzGv-112">
          <mxGeometry width="30" height="30" as="geometry">
            <mxRectangle width="30" height="30" as="alternateBounds" />
          </mxGeometry>
        </mxCell>
        <mxCell id="SoccBnHSWLBsHFDYlzGv-114" value="id: INT" style="shape=partialRectangle;connectable=0;fillColor=none;top=0;left=0;bottom=0;right=0;align=left;spacingLeft=6;fontStyle=5;overflow=hidden;whiteSpace=wrap;html=1;" vertex="1" parent="SoccBnHSWLBsHFDYlzGv-112">
          <mxGeometry x="30" width="190" height="30" as="geometry">
            <mxRectangle width="190" height="30" as="alternateBounds" />
          </mxGeometry>
        </mxCell>
        <mxCell id="SoccBnHSWLBsHFDYlzGv-115" value="" style="shape=tableRow;horizontal=0;startSize=0;swimlaneHead=0;swimlaneBody=0;fillColor=none;collapsible=0;dropTarget=0;points=[[0,0.5],[1,0.5]];portConstraint=eastwest;top=0;left=0;right=0;bottom=0;" vertex="1" parent="SoccBnHSWLBsHFDYlzGv-111">
          <mxGeometry y="50" width="220" height="30" as="geometry" />
        </mxCell>
        <mxCell id="SoccBnHSWLBsHFDYlzGv-116" value="" style="shape=partialRectangle;connectable=0;fillColor=none;top=0;left=0;bottom=0;right=0;editable=1;overflow=hidden;whiteSpace=wrap;html=1;" vertex="1" parent="SoccBnHSWLBsHFDYlzGv-115">
          <mxGeometry width="30" height="30" as="geometry">
            <mxRectangle width="30" height="30" as="alternateBounds" />
          </mxGeometry>
        </mxCell>
        <mxCell id="SoccBnHSWLBsHFDYlzGv-117" value="rating: INT" style="shape=partialRectangle;connectable=0;fillColor=none;top=0;left=0;bottom=0;right=0;align=left;spacingLeft=6;overflow=hidden;whiteSpace=wrap;html=1;" vertex="1" parent="SoccBnHSWLBsHFDYlzGv-115">
          <mxGeometry x="30" width="190" height="30" as="geometry">
            <mxRectangle width="190" height="30" as="alternateBounds" />
          </mxGeometry>
        </mxCell>
        <mxCell id="SoccBnHSWLBsHFDYlzGv-118" value="" style="shape=tableRow;horizontal=0;startSize=0;swimlaneHead=0;swimlaneBody=0;fillColor=none;collapsible=0;dropTarget=0;points=[[0,0.5],[1,0.5]];portConstraint=eastwest;top=0;left=0;right=0;bottom=0;" vertex="1" parent="SoccBnHSWLBsHFDYlzGv-111">
          <mxGeometry y="80" width="220" height="30" as="geometry" />
        </mxCell>
        <mxCell id="SoccBnHSWLBsHFDYlzGv-119" value="" style="shape=partialRectangle;connectable=0;fillColor=none;top=0;left=0;bottom=0;right=0;editable=1;overflow=hidden;whiteSpace=wrap;html=1;" vertex="1" parent="SoccBnHSWLBsHFDYlzGv-118">
          <mxGeometry width="30" height="30" as="geometry">
            <mxRectangle width="30" height="30" as="alternateBounds" />
          </mxGeometry>
        </mxCell>
        <mxCell id="SoccBnHSWLBsHFDYlzGv-120" value="comment: STRING" style="shape=partialRectangle;connectable=0;fillColor=none;top=0;left=0;bottom=0;right=0;align=left;spacingLeft=6;overflow=hidden;whiteSpace=wrap;html=1;" vertex="1" parent="SoccBnHSWLBsHFDYlzGv-118">
          <mxGeometry x="30" width="190" height="30" as="geometry">
            <mxRectangle width="190" height="30" as="alternateBounds" />
          </mxGeometry>
        </mxCell>
        <mxCell id="SoccBnHSWLBsHFDYlzGv-121" value="" style="shape=tableRow;horizontal=0;startSize=0;swimlaneHead=0;swimlaneBody=0;fillColor=none;collapsible=0;dropTarget=0;points=[[0,0.5],[1,0.5]];portConstraint=eastwest;top=0;left=0;right=0;bottom=0;" vertex="1" parent="SoccBnHSWLBsHFDYlzGv-111">
          <mxGeometry y="110" width="220" height="30" as="geometry" />
        </mxCell>
        <mxCell id="SoccBnHSWLBsHFDYlzGv-122" value="" style="shape=partialRectangle;connectable=0;fillColor=none;top=0;left=0;bottom=0;right=0;editable=1;overflow=hidden;whiteSpace=wrap;html=1;" vertex="1" parent="SoccBnHSWLBsHFDYlzGv-121">
          <mxGeometry width="30" height="30" as="geometry">
            <mxRectangle width="30" height="30" as="alternateBounds" />
          </mxGeometry>
        </mxCell>
        <mxCell id="SoccBnHSWLBsHFDYlzGv-123" value="customer_id: INT&amp;nbsp;" style="shape=partialRectangle;connectable=0;fillColor=none;top=0;left=0;bottom=0;right=0;align=left;spacingLeft=6;overflow=hidden;whiteSpace=wrap;html=1;" vertex="1" parent="SoccBnHSWLBsHFDYlzGv-121">
          <mxGeometry x="30" width="190" height="30" as="geometry">
            <mxRectangle width="190" height="30" as="alternateBounds" />
          </mxGeometry>
        </mxCell>
        <mxCell id="SoccBnHSWLBsHFDYlzGv-124" value="" style="shape=tableRow;horizontal=0;startSize=0;swimlaneHead=0;swimlaneBody=0;fillColor=none;collapsible=0;dropTarget=0;points=[[0,0.5],[1,0.5]];portConstraint=eastwest;top=0;left=0;right=0;bottom=0;" vertex="1" parent="SoccBnHSWLBsHFDYlzGv-111">
          <mxGeometry y="140" width="220" height="30" as="geometry" />
        </mxCell>
        <mxCell id="SoccBnHSWLBsHFDYlzGv-125" value="" style="shape=partialRectangle;connectable=0;fillColor=none;top=0;left=0;bottom=0;right=0;editable=1;overflow=hidden;whiteSpace=wrap;html=1;" vertex="1" parent="SoccBnHSWLBsHFDYlzGv-124">
          <mxGeometry width="30" height="30" as="geometry">
            <mxRectangle width="30" height="30" as="alternateBounds" />
          </mxGeometry>
        </mxCell>
        <mxCell id="SoccBnHSWLBsHFDYlzGv-126" value="provider_id: INT" style="shape=partialRectangle;connectable=0;fillColor=none;top=0;left=0;bottom=0;right=0;align=left;spacingLeft=6;overflow=hidden;whiteSpace=wrap;html=1;" vertex="1" parent="SoccBnHSWLBsHFDYlzGv-124">
          <mxGeometry x="30" width="190" height="30" as="geometry">
            <mxRectangle width="190" height="30" as="alternateBounds" />
          </mxGeometry>
        </mxCell>
        <mxCell id="SoccBnHSWLBsHFDYlzGv-142" value="Booking" style="shape=table;startSize=30;container=1;collapsible=1;childLayout=tableLayout;fixedRows=1;rowLines=0;fontStyle=1;align=center;resizeLast=1;html=1;" vertex="1" parent="WIyWlLk6GJQsqaUBKTNV-1">
          <mxGeometry x="-340" y="1070" width="220" height="330" as="geometry" />
        </mxCell>
        <mxCell id="SoccBnHSWLBsHFDYlzGv-143" value="" style="shape=tableRow;horizontal=0;startSize=0;swimlaneHead=0;swimlaneBody=0;fillColor=none;collapsible=0;dropTarget=0;points=[[0,0.5],[1,0.5]];portConstraint=eastwest;top=0;left=0;right=0;bottom=1;" vertex="1" parent="SoccBnHSWLBsHFDYlzGv-142">
          <mxGeometry y="30" width="220" height="30" as="geometry" />
        </mxCell>
        <mxCell id="SoccBnHSWLBsHFDYlzGv-144" value="PK" style="shape=partialRectangle;connectable=0;fillColor=none;top=0;left=0;bottom=0;right=0;fontStyle=1;overflow=hidden;whiteSpace=wrap;html=1;" vertex="1" parent="SoccBnHSWLBsHFDYlzGv-143">
          <mxGeometry width="30" height="30" as="geometry">
            <mxRectangle width="30" height="30" as="alternateBounds" />
          </mxGeometry>
        </mxCell>
        <mxCell id="SoccBnHSWLBsHFDYlzGv-145" value="id : INT" style="shape=partialRectangle;connectable=0;fillColor=none;top=0;left=0;bottom=0;right=0;align=left;spacingLeft=6;fontStyle=5;overflow=hidden;whiteSpace=wrap;html=1;" vertex="1" parent="SoccBnHSWLBsHFDYlzGv-143">
          <mxGeometry x="30" width="190" height="30" as="geometry">
            <mxRectangle width="190" height="30" as="alternateBounds" />
          </mxGeometry>
        </mxCell>
        <mxCell id="SoccBnHSWLBsHFDYlzGv-146" value="" style="shape=tableRow;horizontal=0;startSize=0;swimlaneHead=0;swimlaneBody=0;fillColor=none;collapsible=0;dropTarget=0;points=[[0,0.5],[1,0.5]];portConstraint=eastwest;top=0;left=0;right=0;bottom=0;" vertex="1" parent="SoccBnHSWLBsHFDYlzGv-142">
          <mxGeometry y="60" width="220" height="30" as="geometry" />
        </mxCell>
        <mxCell id="SoccBnHSWLBsHFDYlzGv-147" value="" style="shape=partialRectangle;connectable=0;fillColor=none;top=0;left=0;bottom=0;right=0;editable=1;overflow=hidden;whiteSpace=wrap;html=1;" vertex="1" parent="SoccBnHSWLBsHFDYlzGv-146">
          <mxGeometry width="30" height="30" as="geometry">
            <mxRectangle width="30" height="30" as="alternateBounds" />
          </mxGeometry>
        </mxCell>
        <mxCell id="SoccBnHSWLBsHFDYlzGv-148" value="firstname : STRING" style="shape=partialRectangle;connectable=0;fillColor=none;top=0;left=0;bottom=0;right=0;align=left;spacingLeft=6;overflow=hidden;whiteSpace=wrap;html=1;" vertex="1" parent="SoccBnHSWLBsHFDYlzGv-146">
          <mxGeometry x="30" width="190" height="30" as="geometry">
            <mxRectangle width="190" height="30" as="alternateBounds" />
          </mxGeometry>
        </mxCell>
        <mxCell id="SoccBnHSWLBsHFDYlzGv-149" value="" style="shape=tableRow;horizontal=0;startSize=0;swimlaneHead=0;swimlaneBody=0;fillColor=none;collapsible=0;dropTarget=0;points=[[0,0.5],[1,0.5]];portConstraint=eastwest;top=0;left=0;right=0;bottom=0;" vertex="1" parent="SoccBnHSWLBsHFDYlzGv-142">
          <mxGeometry y="90" width="220" height="30" as="geometry" />
        </mxCell>
        <mxCell id="SoccBnHSWLBsHFDYlzGv-150" value="" style="shape=partialRectangle;connectable=0;fillColor=none;top=0;left=0;bottom=0;right=0;editable=1;overflow=hidden;whiteSpace=wrap;html=1;" vertex="1" parent="SoccBnHSWLBsHFDYlzGv-149">
          <mxGeometry width="30" height="30" as="geometry">
            <mxRectangle width="30" height="30" as="alternateBounds" />
          </mxGeometry>
        </mxCell>
        <mxCell id="SoccBnHSWLBsHFDYlzGv-151" value="lastname: STRING" style="shape=partialRectangle;connectable=0;fillColor=none;top=0;left=0;bottom=0;right=0;align=left;spacingLeft=6;overflow=hidden;whiteSpace=wrap;html=1;" vertex="1" parent="SoccBnHSWLBsHFDYlzGv-149">
          <mxGeometry x="30" width="190" height="30" as="geometry">
            <mxRectangle width="190" height="30" as="alternateBounds" />
          </mxGeometry>
        </mxCell>
        <mxCell id="SoccBnHSWLBsHFDYlzGv-152" value="" style="shape=tableRow;horizontal=0;startSize=0;swimlaneHead=0;swimlaneBody=0;fillColor=none;collapsible=0;dropTarget=0;points=[[0,0.5],[1,0.5]];portConstraint=eastwest;top=0;left=0;right=0;bottom=0;" vertex="1" parent="SoccBnHSWLBsHFDYlzGv-142">
          <mxGeometry y="120" width="220" height="30" as="geometry" />
        </mxCell>
        <mxCell id="SoccBnHSWLBsHFDYlzGv-153" value="" style="shape=partialRectangle;connectable=0;fillColor=none;top=0;left=0;bottom=0;right=0;editable=1;overflow=hidden;whiteSpace=wrap;html=1;" vertex="1" parent="SoccBnHSWLBsHFDYlzGv-152">
          <mxGeometry width="30" height="30" as="geometry">
            <mxRectangle width="30" height="30" as="alternateBounds" />
          </mxGeometry>
        </mxCell>
        <mxCell id="SoccBnHSWLBsHFDYlzGv-154" value="email: STRING {Not Null, Unique}" style="shape=partialRectangle;connectable=0;fillColor=none;top=0;left=0;bottom=0;right=0;align=left;spacingLeft=6;overflow=hidden;whiteSpace=wrap;html=1;" vertex="1" parent="SoccBnHSWLBsHFDYlzGv-152">
          <mxGeometry x="30" width="190" height="30" as="geometry">
            <mxRectangle width="190" height="30" as="alternateBounds" />
          </mxGeometry>
        </mxCell>
        <mxCell id="SoccBnHSWLBsHFDYlzGv-155" value="" style="shape=tableRow;horizontal=0;startSize=0;swimlaneHead=0;swimlaneBody=0;fillColor=none;collapsible=0;dropTarget=0;points=[[0,0.5],[1,0.5]];portConstraint=eastwest;top=0;left=0;right=0;bottom=0;" vertex="1" parent="SoccBnHSWLBsHFDYlzGv-142">
          <mxGeometry y="150" width="220" height="30" as="geometry" />
        </mxCell>
        <mxCell id="SoccBnHSWLBsHFDYlzGv-156" value="" style="shape=partialRectangle;connectable=0;fillColor=none;top=0;left=0;bottom=0;right=0;editable=1;overflow=hidden;whiteSpace=wrap;html=1;" vertex="1" parent="SoccBnHSWLBsHFDYlzGv-155">
          <mxGeometry width="30" height="30" as="geometry">
            <mxRectangle width="30" height="30" as="alternateBounds" />
          </mxGeometry>
        </mxCell>
        <mxCell id="SoccBnHSWLBsHFDYlzGv-157" value="password: STRING {Not Null}" style="shape=partialRectangle;connectable=0;fillColor=none;top=0;left=0;bottom=0;right=0;align=left;spacingLeft=6;overflow=hidden;whiteSpace=wrap;html=1;" vertex="1" parent="SoccBnHSWLBsHFDYlzGv-155">
          <mxGeometry x="30" width="190" height="30" as="geometry">
            <mxRectangle width="190" height="30" as="alternateBounds" />
          </mxGeometry>
        </mxCell>
        <mxCell id="SoccBnHSWLBsHFDYlzGv-158" value="" style="shape=tableRow;horizontal=0;startSize=0;swimlaneHead=0;swimlaneBody=0;fillColor=none;collapsible=0;dropTarget=0;points=[[0,0.5],[1,0.5]];portConstraint=eastwest;top=0;left=0;right=0;bottom=0;" vertex="1" parent="SoccBnHSWLBsHFDYlzGv-142">
          <mxGeometry y="180" width="220" height="30" as="geometry" />
        </mxCell>
        <mxCell id="SoccBnHSWLBsHFDYlzGv-159" value="" style="shape=partialRectangle;connectable=0;fillColor=none;top=0;left=0;bottom=0;right=0;editable=1;overflow=hidden;whiteSpace=wrap;html=1;" vertex="1" parent="SoccBnHSWLBsHFDYlzGv-158">
          <mxGeometry width="30" height="30" as="geometry">
            <mxRectangle width="30" height="30" as="alternateBounds" />
          </mxGeometry>
        </mxCell>
        <mxCell id="SoccBnHSWLBsHFDYlzGv-160" value="birthdate: DATE" style="shape=partialRectangle;connectable=0;fillColor=none;top=0;left=0;bottom=0;right=0;align=left;spacingLeft=6;overflow=hidden;whiteSpace=wrap;html=1;" vertex="1" parent="SoccBnHSWLBsHFDYlzGv-158">
          <mxGeometry x="30" width="190" height="30" as="geometry">
            <mxRectangle width="190" height="30" as="alternateBounds" />
          </mxGeometry>
        </mxCell>
        <mxCell id="SoccBnHSWLBsHFDYlzGv-161" value="" style="shape=tableRow;horizontal=0;startSize=0;swimlaneHead=0;swimlaneBody=0;fillColor=none;collapsible=0;dropTarget=0;points=[[0,0.5],[1,0.5]];portConstraint=eastwest;top=0;left=0;right=0;bottom=0;" vertex="1" parent="SoccBnHSWLBsHFDYlzGv-142">
          <mxGeometry y="210" width="220" height="30" as="geometry" />
        </mxCell>
        <mxCell id="SoccBnHSWLBsHFDYlzGv-162" value="" style="shape=partialRectangle;connectable=0;fillColor=none;top=0;left=0;bottom=0;right=0;editable=1;overflow=hidden;whiteSpace=wrap;html=1;" vertex="1" parent="SoccBnHSWLBsHFDYlzGv-161">
          <mxGeometry width="30" height="30" as="geometry">
            <mxRectangle width="30" height="30" as="alternateBounds" />
          </mxGeometry>
        </mxCell>
        <mxCell id="SoccBnHSWLBsHFDYlzGv-163" value="address: STRING" style="shape=partialRectangle;connectable=0;fillColor=none;top=0;left=0;bottom=0;right=0;align=left;spacingLeft=6;overflow=hidden;whiteSpace=wrap;html=1;" vertex="1" parent="SoccBnHSWLBsHFDYlzGv-161">
          <mxGeometry x="30" width="190" height="30" as="geometry">
            <mxRectangle width="190" height="30" as="alternateBounds" />
          </mxGeometry>
        </mxCell>
        <mxCell id="SoccBnHSWLBsHFDYlzGv-164" value="" style="shape=tableRow;horizontal=0;startSize=0;swimlaneHead=0;swimlaneBody=0;fillColor=none;collapsible=0;dropTarget=0;points=[[0,0.5],[1,0.5]];portConstraint=eastwest;top=0;left=0;right=0;bottom=0;" vertex="1" parent="SoccBnHSWLBsHFDYlzGv-142">
          <mxGeometry y="240" width="220" height="30" as="geometry" />
        </mxCell>
        <mxCell id="SoccBnHSWLBsHFDYlzGv-165" value="" style="shape=partialRectangle;connectable=0;fillColor=none;top=0;left=0;bottom=0;right=0;editable=1;overflow=hidden;whiteSpace=wrap;html=1;" vertex="1" parent="SoccBnHSWLBsHFDYlzGv-164">
          <mxGeometry width="30" height="30" as="geometry">
            <mxRectangle width="30" height="30" as="alternateBounds" />
          </mxGeometry>
        </mxCell>
        <mxCell id="SoccBnHSWLBsHFDYlzGv-166" value="phonenumber: STRING" style="shape=partialRectangle;connectable=0;fillColor=none;top=0;left=0;bottom=0;right=0;align=left;spacingLeft=6;overflow=hidden;whiteSpace=wrap;html=1;" vertex="1" parent="SoccBnHSWLBsHFDYlzGv-164">
          <mxGeometry x="30" width="190" height="30" as="geometry">
            <mxRectangle width="190" height="30" as="alternateBounds" />
          </mxGeometry>
        </mxCell>
        <mxCell id="SoccBnHSWLBsHFDYlzGv-167" value="" style="shape=tableRow;horizontal=0;startSize=0;swimlaneHead=0;swimlaneBody=0;fillColor=none;collapsible=0;dropTarget=0;points=[[0,0.5],[1,0.5]];portConstraint=eastwest;top=0;left=0;right=0;bottom=0;" vertex="1" parent="SoccBnHSWLBsHFDYlzGv-142">
          <mxGeometry y="270" width="220" height="30" as="geometry" />
        </mxCell>
        <mxCell id="SoccBnHSWLBsHFDYlzGv-168" value="" style="shape=partialRectangle;connectable=0;fillColor=none;top=0;left=0;bottom=0;right=0;editable=1;overflow=hidden;whiteSpace=wrap;html=1;" vertex="1" parent="SoccBnHSWLBsHFDYlzGv-167">
          <mxGeometry width="30" height="30" as="geometry">
            <mxRectangle width="30" height="30" as="alternateBounds" />
          </mxGeometry>
        </mxCell>
        <mxCell id="SoccBnHSWLBsHFDYlzGv-169" value="role: ENUM" style="shape=partialRectangle;connectable=0;fillColor=none;top=0;left=0;bottom=0;right=0;align=left;spacingLeft=6;overflow=hidden;whiteSpace=wrap;html=1;" vertex="1" parent="SoccBnHSWLBsHFDYlzGv-167">
          <mxGeometry x="30" width="190" height="30" as="geometry">
            <mxRectangle width="190" height="30" as="alternateBounds" />
          </mxGeometry>
        </mxCell>
        <mxCell id="SoccBnHSWLBsHFDYlzGv-170" value="" style="shape=tableRow;horizontal=0;startSize=0;swimlaneHead=0;swimlaneBody=0;fillColor=none;collapsible=0;dropTarget=0;points=[[0,0.5],[1,0.5]];portConstraint=eastwest;top=0;left=0;right=0;bottom=0;" vertex="1" parent="SoccBnHSWLBsHFDYlzGv-142">
          <mxGeometry y="300" width="220" height="30" as="geometry" />
        </mxCell>
        <mxCell id="SoccBnHSWLBsHFDYlzGv-171" value="" style="shape=partialRectangle;connectable=0;fillColor=none;top=0;left=0;bottom=0;right=0;editable=1;overflow=hidden;whiteSpace=wrap;html=1;" vertex="1" parent="SoccBnHSWLBsHFDYlzGv-170">
          <mxGeometry width="30" height="30" as="geometry">
            <mxRectangle width="30" height="30" as="alternateBounds" />
          </mxGeometry>
        </mxCell>
        <mxCell id="SoccBnHSWLBsHFDYlzGv-172" value="isActive: BOOLEAN" style="shape=partialRectangle;connectable=0;fillColor=none;top=0;left=0;bottom=0;right=0;align=left;spacingLeft=6;overflow=hidden;whiteSpace=wrap;html=1;" vertex="1" parent="SoccBnHSWLBsHFDYlzGv-170">
          <mxGeometry x="30" width="190" height="30" as="geometry">
            <mxRectangle width="190" height="30" as="alternateBounds" />
          </mxGeometry>
        </mxCell>
        <mxCell id="SoccBnHSWLBsHFDYlzGv-174" value="Schedule" style="shape=table;startSize=30;container=1;collapsible=1;childLayout=tableLayout;fixedRows=1;rowLines=0;fontStyle=1;align=center;resizeLast=1;html=1;" vertex="1" parent="WIyWlLk6GJQsqaUBKTNV-1">
          <mxGeometry x="90" y="1080" width="220" height="330" as="geometry" />
        </mxCell>
        <mxCell id="SoccBnHSWLBsHFDYlzGv-175" value="" style="shape=tableRow;horizontal=0;startSize=0;swimlaneHead=0;swimlaneBody=0;fillColor=none;collapsible=0;dropTarget=0;points=[[0,0.5],[1,0.5]];portConstraint=eastwest;top=0;left=0;right=0;bottom=1;" vertex="1" parent="SoccBnHSWLBsHFDYlzGv-174">
          <mxGeometry y="30" width="220" height="30" as="geometry" />
        </mxCell>
        <mxCell id="SoccBnHSWLBsHFDYlzGv-176" value="PK" style="shape=partialRectangle;connectable=0;fillColor=none;top=0;left=0;bottom=0;right=0;fontStyle=1;overflow=hidden;whiteSpace=wrap;html=1;" vertex="1" parent="SoccBnHSWLBsHFDYlzGv-175">
          <mxGeometry width="30" height="30" as="geometry">
            <mxRectangle width="30" height="30" as="alternateBounds" />
          </mxGeometry>
        </mxCell>
        <mxCell id="SoccBnHSWLBsHFDYlzGv-177" value="id : INT" style="shape=partialRectangle;connectable=0;fillColor=none;top=0;left=0;bottom=0;right=0;align=left;spacingLeft=6;fontStyle=5;overflow=hidden;whiteSpace=wrap;html=1;" vertex="1" parent="SoccBnHSWLBsHFDYlzGv-175">
          <mxGeometry x="30" width="190" height="30" as="geometry">
            <mxRectangle width="190" height="30" as="alternateBounds" />
          </mxGeometry>
        </mxCell>
        <mxCell id="SoccBnHSWLBsHFDYlzGv-178" value="" style="shape=tableRow;horizontal=0;startSize=0;swimlaneHead=0;swimlaneBody=0;fillColor=none;collapsible=0;dropTarget=0;points=[[0,0.5],[1,0.5]];portConstraint=eastwest;top=0;left=0;right=0;bottom=0;" vertex="1" parent="SoccBnHSWLBsHFDYlzGv-174">
          <mxGeometry y="60" width="220" height="30" as="geometry" />
        </mxCell>
        <mxCell id="SoccBnHSWLBsHFDYlzGv-179" value="" style="shape=partialRectangle;connectable=0;fillColor=none;top=0;left=0;bottom=0;right=0;editable=1;overflow=hidden;whiteSpace=wrap;html=1;" vertex="1" parent="SoccBnHSWLBsHFDYlzGv-178">
          <mxGeometry width="30" height="30" as="geometry">
            <mxRectangle width="30" height="30" as="alternateBounds" />
          </mxGeometry>
        </mxCell>
        <mxCell id="SoccBnHSWLBsHFDYlzGv-180" value="firstname : STRING" style="shape=partialRectangle;connectable=0;fillColor=none;top=0;left=0;bottom=0;right=0;align=left;spacingLeft=6;overflow=hidden;whiteSpace=wrap;html=1;" vertex="1" parent="SoccBnHSWLBsHFDYlzGv-178">
          <mxGeometry x="30" width="190" height="30" as="geometry">
            <mxRectangle width="190" height="30" as="alternateBounds" />
          </mxGeometry>
        </mxCell>
        <mxCell id="SoccBnHSWLBsHFDYlzGv-181" value="" style="shape=tableRow;horizontal=0;startSize=0;swimlaneHead=0;swimlaneBody=0;fillColor=none;collapsible=0;dropTarget=0;points=[[0,0.5],[1,0.5]];portConstraint=eastwest;top=0;left=0;right=0;bottom=0;" vertex="1" parent="SoccBnHSWLBsHFDYlzGv-174">
          <mxGeometry y="90" width="220" height="30" as="geometry" />
        </mxCell>
        <mxCell id="SoccBnHSWLBsHFDYlzGv-182" value="" style="shape=partialRectangle;connectable=0;fillColor=none;top=0;left=0;bottom=0;right=0;editable=1;overflow=hidden;whiteSpace=wrap;html=1;" vertex="1" parent="SoccBnHSWLBsHFDYlzGv-181">
          <mxGeometry width="30" height="30" as="geometry">
            <mxRectangle width="30" height="30" as="alternateBounds" />
          </mxGeometry>
        </mxCell>
        <mxCell id="SoccBnHSWLBsHFDYlzGv-183" value="lastname: STRING" style="shape=partialRectangle;connectable=0;fillColor=none;top=0;left=0;bottom=0;right=0;align=left;spacingLeft=6;overflow=hidden;whiteSpace=wrap;html=1;" vertex="1" parent="SoccBnHSWLBsHFDYlzGv-181">
          <mxGeometry x="30" width="190" height="30" as="geometry">
            <mxRectangle width="190" height="30" as="alternateBounds" />
          </mxGeometry>
        </mxCell>
        <mxCell id="SoccBnHSWLBsHFDYlzGv-184" value="" style="shape=tableRow;horizontal=0;startSize=0;swimlaneHead=0;swimlaneBody=0;fillColor=none;collapsible=0;dropTarget=0;points=[[0,0.5],[1,0.5]];portConstraint=eastwest;top=0;left=0;right=0;bottom=0;" vertex="1" parent="SoccBnHSWLBsHFDYlzGv-174">
          <mxGeometry y="120" width="220" height="30" as="geometry" />
        </mxCell>
        <mxCell id="SoccBnHSWLBsHFDYlzGv-185" value="" style="shape=partialRectangle;connectable=0;fillColor=none;top=0;left=0;bottom=0;right=0;editable=1;overflow=hidden;whiteSpace=wrap;html=1;" vertex="1" parent="SoccBnHSWLBsHFDYlzGv-184">
          <mxGeometry width="30" height="30" as="geometry">
            <mxRectangle width="30" height="30" as="alternateBounds" />
          </mxGeometry>
        </mxCell>
        <mxCell id="SoccBnHSWLBsHFDYlzGv-186" value="email: STRING {Not Null, Unique}" style="shape=partialRectangle;connectable=0;fillColor=none;top=0;left=0;bottom=0;right=0;align=left;spacingLeft=6;overflow=hidden;whiteSpace=wrap;html=1;" vertex="1" parent="SoccBnHSWLBsHFDYlzGv-184">
          <mxGeometry x="30" width="190" height="30" as="geometry">
            <mxRectangle width="190" height="30" as="alternateBounds" />
          </mxGeometry>
        </mxCell>
        <mxCell id="SoccBnHSWLBsHFDYlzGv-187" value="" style="shape=tableRow;horizontal=0;startSize=0;swimlaneHead=0;swimlaneBody=0;fillColor=none;collapsible=0;dropTarget=0;points=[[0,0.5],[1,0.5]];portConstraint=eastwest;top=0;left=0;right=0;bottom=0;" vertex="1" parent="SoccBnHSWLBsHFDYlzGv-174">
          <mxGeometry y="150" width="220" height="30" as="geometry" />
        </mxCell>
        <mxCell id="SoccBnHSWLBsHFDYlzGv-188" value="" style="shape=partialRectangle;connectable=0;fillColor=none;top=0;left=0;bottom=0;right=0;editable=1;overflow=hidden;whiteSpace=wrap;html=1;" vertex="1" parent="SoccBnHSWLBsHFDYlzGv-187">
          <mxGeometry width="30" height="30" as="geometry">
            <mxRectangle width="30" height="30" as="alternateBounds" />
          </mxGeometry>
        </mxCell>
        <mxCell id="SoccBnHSWLBsHFDYlzGv-189" value="password: STRING {Not Null}" style="shape=partialRectangle;connectable=0;fillColor=none;top=0;left=0;bottom=0;right=0;align=left;spacingLeft=6;overflow=hidden;whiteSpace=wrap;html=1;" vertex="1" parent="SoccBnHSWLBsHFDYlzGv-187">
          <mxGeometry x="30" width="190" height="30" as="geometry">
            <mxRectangle width="190" height="30" as="alternateBounds" />
          </mxGeometry>
        </mxCell>
        <mxCell id="SoccBnHSWLBsHFDYlzGv-190" value="" style="shape=tableRow;horizontal=0;startSize=0;swimlaneHead=0;swimlaneBody=0;fillColor=none;collapsible=0;dropTarget=0;points=[[0,0.5],[1,0.5]];portConstraint=eastwest;top=0;left=0;right=0;bottom=0;" vertex="1" parent="SoccBnHSWLBsHFDYlzGv-174">
          <mxGeometry y="180" width="220" height="30" as="geometry" />
        </mxCell>
        <mxCell id="SoccBnHSWLBsHFDYlzGv-191" value="" style="shape=partialRectangle;connectable=0;fillColor=none;top=0;left=0;bottom=0;right=0;editable=1;overflow=hidden;whiteSpace=wrap;html=1;" vertex="1" parent="SoccBnHSWLBsHFDYlzGv-190">
          <mxGeometry width="30" height="30" as="geometry">
            <mxRectangle width="30" height="30" as="alternateBounds" />
          </mxGeometry>
        </mxCell>
        <mxCell id="SoccBnHSWLBsHFDYlzGv-192" value="birthdate: DATE" style="shape=partialRectangle;connectable=0;fillColor=none;top=0;left=0;bottom=0;right=0;align=left;spacingLeft=6;overflow=hidden;whiteSpace=wrap;html=1;" vertex="1" parent="SoccBnHSWLBsHFDYlzGv-190">
          <mxGeometry x="30" width="190" height="30" as="geometry">
            <mxRectangle width="190" height="30" as="alternateBounds" />
          </mxGeometry>
        </mxCell>
        <mxCell id="SoccBnHSWLBsHFDYlzGv-193" value="" style="shape=tableRow;horizontal=0;startSize=0;swimlaneHead=0;swimlaneBody=0;fillColor=none;collapsible=0;dropTarget=0;points=[[0,0.5],[1,0.5]];portConstraint=eastwest;top=0;left=0;right=0;bottom=0;" vertex="1" parent="SoccBnHSWLBsHFDYlzGv-174">
          <mxGeometry y="210" width="220" height="30" as="geometry" />
        </mxCell>
        <mxCell id="SoccBnHSWLBsHFDYlzGv-194" value="" style="shape=partialRectangle;connectable=0;fillColor=none;top=0;left=0;bottom=0;right=0;editable=1;overflow=hidden;whiteSpace=wrap;html=1;" vertex="1" parent="SoccBnHSWLBsHFDYlzGv-193">
          <mxGeometry width="30" height="30" as="geometry">
            <mxRectangle width="30" height="30" as="alternateBounds" />
          </mxGeometry>
        </mxCell>
        <mxCell id="SoccBnHSWLBsHFDYlzGv-195" value="address: STRING" style="shape=partialRectangle;connectable=0;fillColor=none;top=0;left=0;bottom=0;right=0;align=left;spacingLeft=6;overflow=hidden;whiteSpace=wrap;html=1;" vertex="1" parent="SoccBnHSWLBsHFDYlzGv-193">
          <mxGeometry x="30" width="190" height="30" as="geometry">
            <mxRectangle width="190" height="30" as="alternateBounds" />
          </mxGeometry>
        </mxCell>
        <mxCell id="SoccBnHSWLBsHFDYlzGv-196" value="" style="shape=tableRow;horizontal=0;startSize=0;swimlaneHead=0;swimlaneBody=0;fillColor=none;collapsible=0;dropTarget=0;points=[[0,0.5],[1,0.5]];portConstraint=eastwest;top=0;left=0;right=0;bottom=0;" vertex="1" parent="SoccBnHSWLBsHFDYlzGv-174">
          <mxGeometry y="240" width="220" height="30" as="geometry" />
        </mxCell>
        <mxCell id="SoccBnHSWLBsHFDYlzGv-197" value="" style="shape=partialRectangle;connectable=0;fillColor=none;top=0;left=0;bottom=0;right=0;editable=1;overflow=hidden;whiteSpace=wrap;html=1;" vertex="1" parent="SoccBnHSWLBsHFDYlzGv-196">
          <mxGeometry width="30" height="30" as="geometry">
            <mxRectangle width="30" height="30" as="alternateBounds" />
          </mxGeometry>
        </mxCell>
        <mxCell id="SoccBnHSWLBsHFDYlzGv-198" value="phonenumber: STRING" style="shape=partialRectangle;connectable=0;fillColor=none;top=0;left=0;bottom=0;right=0;align=left;spacingLeft=6;overflow=hidden;whiteSpace=wrap;html=1;" vertex="1" parent="SoccBnHSWLBsHFDYlzGv-196">
          <mxGeometry x="30" width="190" height="30" as="geometry">
            <mxRectangle width="190" height="30" as="alternateBounds" />
          </mxGeometry>
        </mxCell>
        <mxCell id="SoccBnHSWLBsHFDYlzGv-199" value="" style="shape=tableRow;horizontal=0;startSize=0;swimlaneHead=0;swimlaneBody=0;fillColor=none;collapsible=0;dropTarget=0;points=[[0,0.5],[1,0.5]];portConstraint=eastwest;top=0;left=0;right=0;bottom=0;" vertex="1" parent="SoccBnHSWLBsHFDYlzGv-174">
          <mxGeometry y="270" width="220" height="30" as="geometry" />
        </mxCell>
        <mxCell id="SoccBnHSWLBsHFDYlzGv-200" value="" style="shape=partialRectangle;connectable=0;fillColor=none;top=0;left=0;bottom=0;right=0;editable=1;overflow=hidden;whiteSpace=wrap;html=1;" vertex="1" parent="SoccBnHSWLBsHFDYlzGv-199">
          <mxGeometry width="30" height="30" as="geometry">
            <mxRectangle width="30" height="30" as="alternateBounds" />
          </mxGeometry>
        </mxCell>
        <mxCell id="SoccBnHSWLBsHFDYlzGv-201" value="role: ENUM" style="shape=partialRectangle;connectable=0;fillColor=none;top=0;left=0;bottom=0;right=0;align=left;spacingLeft=6;overflow=hidden;whiteSpace=wrap;html=1;" vertex="1" parent="SoccBnHSWLBsHFDYlzGv-199">
          <mxGeometry x="30" width="190" height="30" as="geometry">
            <mxRectangle width="190" height="30" as="alternateBounds" />
          </mxGeometry>
        </mxCell>
        <mxCell id="SoccBnHSWLBsHFDYlzGv-202" value="" style="shape=tableRow;horizontal=0;startSize=0;swimlaneHead=0;swimlaneBody=0;fillColor=none;collapsible=0;dropTarget=0;points=[[0,0.5],[1,0.5]];portConstraint=eastwest;top=0;left=0;right=0;bottom=0;" vertex="1" parent="SoccBnHSWLBsHFDYlzGv-174">
          <mxGeometry y="300" width="220" height="30" as="geometry" />
        </mxCell>
        <mxCell id="SoccBnHSWLBsHFDYlzGv-203" value="" style="shape=partialRectangle;connectable=0;fillColor=none;top=0;left=0;bottom=0;right=0;editable=1;overflow=hidden;whiteSpace=wrap;html=1;" vertex="1" parent="SoccBnHSWLBsHFDYlzGv-202">
          <mxGeometry width="30" height="30" as="geometry">
            <mxRectangle width="30" height="30" as="alternateBounds" />
          </mxGeometry>
        </mxCell>
        <mxCell id="SoccBnHSWLBsHFDYlzGv-204" value="isActive: BOOLEAN" style="shape=partialRectangle;connectable=0;fillColor=none;top=0;left=0;bottom=0;right=0;align=left;spacingLeft=6;overflow=hidden;whiteSpace=wrap;html=1;" vertex="1" parent="SoccBnHSWLBsHFDYlzGv-202">
          <mxGeometry x="30" width="190" height="30" as="geometry">
            <mxRectangle width="190" height="30" as="alternateBounds" />
          </mxGeometry>
        </mxCell>
        <mxCell id="SoccBnHSWLBsHFDYlzGv-205" value="Service" style="shape=table;startSize=30;container=1;collapsible=1;childLayout=tableLayout;fixedRows=1;rowLines=0;fontStyle=1;align=center;resizeLast=1;html=1;" vertex="1" parent="WIyWlLk6GJQsqaUBKTNV-1">
          <mxGeometry x="414" y="1080" width="220" height="330" as="geometry" />
        </mxCell>
        <mxCell id="SoccBnHSWLBsHFDYlzGv-206" value="" style="shape=tableRow;horizontal=0;startSize=0;swimlaneHead=0;swimlaneBody=0;fillColor=none;collapsible=0;dropTarget=0;points=[[0,0.5],[1,0.5]];portConstraint=eastwest;top=0;left=0;right=0;bottom=1;" vertex="1" parent="SoccBnHSWLBsHFDYlzGv-205">
          <mxGeometry y="30" width="220" height="30" as="geometry" />
        </mxCell>
        <mxCell id="SoccBnHSWLBsHFDYlzGv-207" value="PK" style="shape=partialRectangle;connectable=0;fillColor=none;top=0;left=0;bottom=0;right=0;fontStyle=1;overflow=hidden;whiteSpace=wrap;html=1;" vertex="1" parent="SoccBnHSWLBsHFDYlzGv-206">
          <mxGeometry width="30" height="30" as="geometry">
            <mxRectangle width="30" height="30" as="alternateBounds" />
          </mxGeometry>
        </mxCell>
        <mxCell id="SoccBnHSWLBsHFDYlzGv-208" value="id : INT" style="shape=partialRectangle;connectable=0;fillColor=none;top=0;left=0;bottom=0;right=0;align=left;spacingLeft=6;fontStyle=5;overflow=hidden;whiteSpace=wrap;html=1;" vertex="1" parent="SoccBnHSWLBsHFDYlzGv-206">
          <mxGeometry x="30" width="190" height="30" as="geometry">
            <mxRectangle width="190" height="30" as="alternateBounds" />
          </mxGeometry>
        </mxCell>
        <mxCell id="SoccBnHSWLBsHFDYlzGv-209" value="" style="shape=tableRow;horizontal=0;startSize=0;swimlaneHead=0;swimlaneBody=0;fillColor=none;collapsible=0;dropTarget=0;points=[[0,0.5],[1,0.5]];portConstraint=eastwest;top=0;left=0;right=0;bottom=0;" vertex="1" parent="SoccBnHSWLBsHFDYlzGv-205">
          <mxGeometry y="60" width="220" height="30" as="geometry" />
        </mxCell>
        <mxCell id="SoccBnHSWLBsHFDYlzGv-210" value="" style="shape=partialRectangle;connectable=0;fillColor=none;top=0;left=0;bottom=0;right=0;editable=1;overflow=hidden;whiteSpace=wrap;html=1;" vertex="1" parent="SoccBnHSWLBsHFDYlzGv-209">
          <mxGeometry width="30" height="30" as="geometry">
            <mxRectangle width="30" height="30" as="alternateBounds" />
          </mxGeometry>
        </mxCell>
        <mxCell id="SoccBnHSWLBsHFDYlzGv-211" value="firstname : STRING" style="shape=partialRectangle;connectable=0;fillColor=none;top=0;left=0;bottom=0;right=0;align=left;spacingLeft=6;overflow=hidden;whiteSpace=wrap;html=1;" vertex="1" parent="SoccBnHSWLBsHFDYlzGv-209">
          <mxGeometry x="30" width="190" height="30" as="geometry">
            <mxRectangle width="190" height="30" as="alternateBounds" />
          </mxGeometry>
        </mxCell>
        <mxCell id="SoccBnHSWLBsHFDYlzGv-212" value="" style="shape=tableRow;horizontal=0;startSize=0;swimlaneHead=0;swimlaneBody=0;fillColor=none;collapsible=0;dropTarget=0;points=[[0,0.5],[1,0.5]];portConstraint=eastwest;top=0;left=0;right=0;bottom=0;" vertex="1" parent="SoccBnHSWLBsHFDYlzGv-205">
          <mxGeometry y="90" width="220" height="30" as="geometry" />
        </mxCell>
        <mxCell id="SoccBnHSWLBsHFDYlzGv-213" value="" style="shape=partialRectangle;connectable=0;fillColor=none;top=0;left=0;bottom=0;right=0;editable=1;overflow=hidden;whiteSpace=wrap;html=1;" vertex="1" parent="SoccBnHSWLBsHFDYlzGv-212">
          <mxGeometry width="30" height="30" as="geometry">
            <mxRectangle width="30" height="30" as="alternateBounds" />
          </mxGeometry>
        </mxCell>
        <mxCell id="SoccBnHSWLBsHFDYlzGv-214" value="lastname: STRING" style="shape=partialRectangle;connectable=0;fillColor=none;top=0;left=0;bottom=0;right=0;align=left;spacingLeft=6;overflow=hidden;whiteSpace=wrap;html=1;" vertex="1" parent="SoccBnHSWLBsHFDYlzGv-212">
          <mxGeometry x="30" width="190" height="30" as="geometry">
            <mxRectangle width="190" height="30" as="alternateBounds" />
          </mxGeometry>
        </mxCell>
        <mxCell id="SoccBnHSWLBsHFDYlzGv-215" value="" style="shape=tableRow;horizontal=0;startSize=0;swimlaneHead=0;swimlaneBody=0;fillColor=none;collapsible=0;dropTarget=0;points=[[0,0.5],[1,0.5]];portConstraint=eastwest;top=0;left=0;right=0;bottom=0;" vertex="1" parent="SoccBnHSWLBsHFDYlzGv-205">
          <mxGeometry y="120" width="220" height="30" as="geometry" />
        </mxCell>
        <mxCell id="SoccBnHSWLBsHFDYlzGv-216" value="" style="shape=partialRectangle;connectable=0;fillColor=none;top=0;left=0;bottom=0;right=0;editable=1;overflow=hidden;whiteSpace=wrap;html=1;" vertex="1" parent="SoccBnHSWLBsHFDYlzGv-215">
          <mxGeometry width="30" height="30" as="geometry">
            <mxRectangle width="30" height="30" as="alternateBounds" />
          </mxGeometry>
        </mxCell>
        <mxCell id="SoccBnHSWLBsHFDYlzGv-217" value="email: STRING {Not Null, Unique}" style="shape=partialRectangle;connectable=0;fillColor=none;top=0;left=0;bottom=0;right=0;align=left;spacingLeft=6;overflow=hidden;whiteSpace=wrap;html=1;" vertex="1" parent="SoccBnHSWLBsHFDYlzGv-215">
          <mxGeometry x="30" width="190" height="30" as="geometry">
            <mxRectangle width="190" height="30" as="alternateBounds" />
          </mxGeometry>
        </mxCell>
        <mxCell id="SoccBnHSWLBsHFDYlzGv-218" value="" style="shape=tableRow;horizontal=0;startSize=0;swimlaneHead=0;swimlaneBody=0;fillColor=none;collapsible=0;dropTarget=0;points=[[0,0.5],[1,0.5]];portConstraint=eastwest;top=0;left=0;right=0;bottom=0;" vertex="1" parent="SoccBnHSWLBsHFDYlzGv-205">
          <mxGeometry y="150" width="220" height="30" as="geometry" />
        </mxCell>
        <mxCell id="SoccBnHSWLBsHFDYlzGv-219" value="" style="shape=partialRectangle;connectable=0;fillColor=none;top=0;left=0;bottom=0;right=0;editable=1;overflow=hidden;whiteSpace=wrap;html=1;" vertex="1" parent="SoccBnHSWLBsHFDYlzGv-218">
          <mxGeometry width="30" height="30" as="geometry">
            <mxRectangle width="30" height="30" as="alternateBounds" />
          </mxGeometry>
        </mxCell>
        <mxCell id="SoccBnHSWLBsHFDYlzGv-220" value="password: STRING {Not Null}" style="shape=partialRectangle;connectable=0;fillColor=none;top=0;left=0;bottom=0;right=0;align=left;spacingLeft=6;overflow=hidden;whiteSpace=wrap;html=1;" vertex="1" parent="SoccBnHSWLBsHFDYlzGv-218">
          <mxGeometry x="30" width="190" height="30" as="geometry">
            <mxRectangle width="190" height="30" as="alternateBounds" />
          </mxGeometry>
        </mxCell>
        <mxCell id="SoccBnHSWLBsHFDYlzGv-221" value="" style="shape=tableRow;horizontal=0;startSize=0;swimlaneHead=0;swimlaneBody=0;fillColor=none;collapsible=0;dropTarget=0;points=[[0,0.5],[1,0.5]];portConstraint=eastwest;top=0;left=0;right=0;bottom=0;" vertex="1" parent="SoccBnHSWLBsHFDYlzGv-205">
          <mxGeometry y="180" width="220" height="30" as="geometry" />
        </mxCell>
        <mxCell id="SoccBnHSWLBsHFDYlzGv-222" value="" style="shape=partialRectangle;connectable=0;fillColor=none;top=0;left=0;bottom=0;right=0;editable=1;overflow=hidden;whiteSpace=wrap;html=1;" vertex="1" parent="SoccBnHSWLBsHFDYlzGv-221">
          <mxGeometry width="30" height="30" as="geometry">
            <mxRectangle width="30" height="30" as="alternateBounds" />
          </mxGeometry>
        </mxCell>
        <mxCell id="SoccBnHSWLBsHFDYlzGv-223" value="birthdate: DATE" style="shape=partialRectangle;connectable=0;fillColor=none;top=0;left=0;bottom=0;right=0;align=left;spacingLeft=6;overflow=hidden;whiteSpace=wrap;html=1;" vertex="1" parent="SoccBnHSWLBsHFDYlzGv-221">
          <mxGeometry x="30" width="190" height="30" as="geometry">
            <mxRectangle width="190" height="30" as="alternateBounds" />
          </mxGeometry>
        </mxCell>
        <mxCell id="SoccBnHSWLBsHFDYlzGv-224" value="" style="shape=tableRow;horizontal=0;startSize=0;swimlaneHead=0;swimlaneBody=0;fillColor=none;collapsible=0;dropTarget=0;points=[[0,0.5],[1,0.5]];portConstraint=eastwest;top=0;left=0;right=0;bottom=0;" vertex="1" parent="SoccBnHSWLBsHFDYlzGv-205">
          <mxGeometry y="210" width="220" height="30" as="geometry" />
        </mxCell>
        <mxCell id="SoccBnHSWLBsHFDYlzGv-225" value="" style="shape=partialRectangle;connectable=0;fillColor=none;top=0;left=0;bottom=0;right=0;editable=1;overflow=hidden;whiteSpace=wrap;html=1;" vertex="1" parent="SoccBnHSWLBsHFDYlzGv-224">
          <mxGeometry width="30" height="30" as="geometry">
            <mxRectangle width="30" height="30" as="alternateBounds" />
          </mxGeometry>
        </mxCell>
        <mxCell id="SoccBnHSWLBsHFDYlzGv-226" value="address: STRING" style="shape=partialRectangle;connectable=0;fillColor=none;top=0;left=0;bottom=0;right=0;align=left;spacingLeft=6;overflow=hidden;whiteSpace=wrap;html=1;" vertex="1" parent="SoccBnHSWLBsHFDYlzGv-224">
          <mxGeometry x="30" width="190" height="30" as="geometry">
            <mxRectangle width="190" height="30" as="alternateBounds" />
          </mxGeometry>
        </mxCell>
        <mxCell id="SoccBnHSWLBsHFDYlzGv-227" value="" style="shape=tableRow;horizontal=0;startSize=0;swimlaneHead=0;swimlaneBody=0;fillColor=none;collapsible=0;dropTarget=0;points=[[0,0.5],[1,0.5]];portConstraint=eastwest;top=0;left=0;right=0;bottom=0;" vertex="1" parent="SoccBnHSWLBsHFDYlzGv-205">
          <mxGeometry y="240" width="220" height="30" as="geometry" />
        </mxCell>
        <mxCell id="SoccBnHSWLBsHFDYlzGv-228" value="" style="shape=partialRectangle;connectable=0;fillColor=none;top=0;left=0;bottom=0;right=0;editable=1;overflow=hidden;whiteSpace=wrap;html=1;" vertex="1" parent="SoccBnHSWLBsHFDYlzGv-227">
          <mxGeometry width="30" height="30" as="geometry">
            <mxRectangle width="30" height="30" as="alternateBounds" />
          </mxGeometry>
        </mxCell>
        <mxCell id="SoccBnHSWLBsHFDYlzGv-229" value="phonenumber: STRING" style="shape=partialRectangle;connectable=0;fillColor=none;top=0;left=0;bottom=0;right=0;align=left;spacingLeft=6;overflow=hidden;whiteSpace=wrap;html=1;" vertex="1" parent="SoccBnHSWLBsHFDYlzGv-227">
          <mxGeometry x="30" width="190" height="30" as="geometry">
            <mxRectangle width="190" height="30" as="alternateBounds" />
          </mxGeometry>
        </mxCell>
        <mxCell id="SoccBnHSWLBsHFDYlzGv-230" value="" style="shape=tableRow;horizontal=0;startSize=0;swimlaneHead=0;swimlaneBody=0;fillColor=none;collapsible=0;dropTarget=0;points=[[0,0.5],[1,0.5]];portConstraint=eastwest;top=0;left=0;right=0;bottom=0;" vertex="1" parent="SoccBnHSWLBsHFDYlzGv-205">
          <mxGeometry y="270" width="220" height="30" as="geometry" />
        </mxCell>
        <mxCell id="SoccBnHSWLBsHFDYlzGv-231" value="" style="shape=partialRectangle;connectable=0;fillColor=none;top=0;left=0;bottom=0;right=0;editable=1;overflow=hidden;whiteSpace=wrap;html=1;" vertex="1" parent="SoccBnHSWLBsHFDYlzGv-230">
          <mxGeometry width="30" height="30" as="geometry">
            <mxRectangle width="30" height="30" as="alternateBounds" />
          </mxGeometry>
        </mxCell>
        <mxCell id="SoccBnHSWLBsHFDYlzGv-232" value="role: ENUM" style="shape=partialRectangle;connectable=0;fillColor=none;top=0;left=0;bottom=0;right=0;align=left;spacingLeft=6;overflow=hidden;whiteSpace=wrap;html=1;" vertex="1" parent="SoccBnHSWLBsHFDYlzGv-230">
          <mxGeometry x="30" width="190" height="30" as="geometry">
            <mxRectangle width="190" height="30" as="alternateBounds" />
          </mxGeometry>
        </mxCell>
        <mxCell id="SoccBnHSWLBsHFDYlzGv-233" value="" style="shape=tableRow;horizontal=0;startSize=0;swimlaneHead=0;swimlaneBody=0;fillColor=none;collapsible=0;dropTarget=0;points=[[0,0.5],[1,0.5]];portConstraint=eastwest;top=0;left=0;right=0;bottom=0;" vertex="1" parent="SoccBnHSWLBsHFDYlzGv-205">
          <mxGeometry y="300" width="220" height="30" as="geometry" />
        </mxCell>
        <mxCell id="SoccBnHSWLBsHFDYlzGv-234" value="" style="shape=partialRectangle;connectable=0;fillColor=none;top=0;left=0;bottom=0;right=0;editable=1;overflow=hidden;whiteSpace=wrap;html=1;" vertex="1" parent="SoccBnHSWLBsHFDYlzGv-233">
          <mxGeometry width="30" height="30" as="geometry">
            <mxRectangle width="30" height="30" as="alternateBounds" />
          </mxGeometry>
        </mxCell>
        <mxCell id="SoccBnHSWLBsHFDYlzGv-235" value="isActive: BOOLEAN" style="shape=partialRectangle;connectable=0;fillColor=none;top=0;left=0;bottom=0;right=0;align=left;spacingLeft=6;overflow=hidden;whiteSpace=wrap;html=1;" vertex="1" parent="SoccBnHSWLBsHFDYlzGv-233">
          <mxGeometry x="30" width="190" height="30" as="geometry">
            <mxRectangle width="190" height="30" as="alternateBounds" />
          </mxGeometry>
        </mxCell>
        <mxCell id="SoccBnHSWLBsHFDYlzGv-236" value="Category" style="shape=table;startSize=30;container=1;collapsible=1;childLayout=tableLayout;fixedRows=1;rowLines=0;fontStyle=1;align=center;resizeLast=1;html=1;" vertex="1" parent="WIyWlLk6GJQsqaUBKTNV-1">
          <mxGeometry x="840" y="960" width="220" height="330" as="geometry" />
        </mxCell>
        <mxCell id="SoccBnHSWLBsHFDYlzGv-237" value="" style="shape=tableRow;horizontal=0;startSize=0;swimlaneHead=0;swimlaneBody=0;fillColor=none;collapsible=0;dropTarget=0;points=[[0,0.5],[1,0.5]];portConstraint=eastwest;top=0;left=0;right=0;bottom=1;" vertex="1" parent="SoccBnHSWLBsHFDYlzGv-236">
          <mxGeometry y="30" width="220" height="30" as="geometry" />
        </mxCell>
        <mxCell id="SoccBnHSWLBsHFDYlzGv-238" value="PK" style="shape=partialRectangle;connectable=0;fillColor=none;top=0;left=0;bottom=0;right=0;fontStyle=1;overflow=hidden;whiteSpace=wrap;html=1;" vertex="1" parent="SoccBnHSWLBsHFDYlzGv-237">
          <mxGeometry width="30" height="30" as="geometry">
            <mxRectangle width="30" height="30" as="alternateBounds" />
          </mxGeometry>
        </mxCell>
        <mxCell id="SoccBnHSWLBsHFDYlzGv-239" value="id : INT" style="shape=partialRectangle;connectable=0;fillColor=none;top=0;left=0;bottom=0;right=0;align=left;spacingLeft=6;fontStyle=5;overflow=hidden;whiteSpace=wrap;html=1;" vertex="1" parent="SoccBnHSWLBsHFDYlzGv-237">
          <mxGeometry x="30" width="190" height="30" as="geometry">
            <mxRectangle width="190" height="30" as="alternateBounds" />
          </mxGeometry>
        </mxCell>
        <mxCell id="SoccBnHSWLBsHFDYlzGv-240" value="" style="shape=tableRow;horizontal=0;startSize=0;swimlaneHead=0;swimlaneBody=0;fillColor=none;collapsible=0;dropTarget=0;points=[[0,0.5],[1,0.5]];portConstraint=eastwest;top=0;left=0;right=0;bottom=0;" vertex="1" parent="SoccBnHSWLBsHFDYlzGv-236">
          <mxGeometry y="60" width="220" height="30" as="geometry" />
        </mxCell>
        <mxCell id="SoccBnHSWLBsHFDYlzGv-241" value="" style="shape=partialRectangle;connectable=0;fillColor=none;top=0;left=0;bottom=0;right=0;editable=1;overflow=hidden;whiteSpace=wrap;html=1;" vertex="1" parent="SoccBnHSWLBsHFDYlzGv-240">
          <mxGeometry width="30" height="30" as="geometry">
            <mxRectangle width="30" height="30" as="alternateBounds" />
          </mxGeometry>
        </mxCell>
        <mxCell id="SoccBnHSWLBsHFDYlzGv-242" value="firstname : STRING" style="shape=partialRectangle;connectable=0;fillColor=none;top=0;left=0;bottom=0;right=0;align=left;spacingLeft=6;overflow=hidden;whiteSpace=wrap;html=1;" vertex="1" parent="SoccBnHSWLBsHFDYlzGv-240">
          <mxGeometry x="30" width="190" height="30" as="geometry">
            <mxRectangle width="190" height="30" as="alternateBounds" />
          </mxGeometry>
        </mxCell>
        <mxCell id="SoccBnHSWLBsHFDYlzGv-243" value="" style="shape=tableRow;horizontal=0;startSize=0;swimlaneHead=0;swimlaneBody=0;fillColor=none;collapsible=0;dropTarget=0;points=[[0,0.5],[1,0.5]];portConstraint=eastwest;top=0;left=0;right=0;bottom=0;" vertex="1" parent="SoccBnHSWLBsHFDYlzGv-236">
          <mxGeometry y="90" width="220" height="30" as="geometry" />
        </mxCell>
        <mxCell id="SoccBnHSWLBsHFDYlzGv-244" value="" style="shape=partialRectangle;connectable=0;fillColor=none;top=0;left=0;bottom=0;right=0;editable=1;overflow=hidden;whiteSpace=wrap;html=1;" vertex="1" parent="SoccBnHSWLBsHFDYlzGv-243">
          <mxGeometry width="30" height="30" as="geometry">
            <mxRectangle width="30" height="30" as="alternateBounds" />
          </mxGeometry>
        </mxCell>
        <mxCell id="SoccBnHSWLBsHFDYlzGv-245" value="lastname: STRING" style="shape=partialRectangle;connectable=0;fillColor=none;top=0;left=0;bottom=0;right=0;align=left;spacingLeft=6;overflow=hidden;whiteSpace=wrap;html=1;" vertex="1" parent="SoccBnHSWLBsHFDYlzGv-243">
          <mxGeometry x="30" width="190" height="30" as="geometry">
            <mxRectangle width="190" height="30" as="alternateBounds" />
          </mxGeometry>
        </mxCell>
        <mxCell id="SoccBnHSWLBsHFDYlzGv-246" value="" style="shape=tableRow;horizontal=0;startSize=0;swimlaneHead=0;swimlaneBody=0;fillColor=none;collapsible=0;dropTarget=0;points=[[0,0.5],[1,0.5]];portConstraint=eastwest;top=0;left=0;right=0;bottom=0;" vertex="1" parent="SoccBnHSWLBsHFDYlzGv-236">
          <mxGeometry y="120" width="220" height="30" as="geometry" />
        </mxCell>
        <mxCell id="SoccBnHSWLBsHFDYlzGv-247" value="" style="shape=partialRectangle;connectable=0;fillColor=none;top=0;left=0;bottom=0;right=0;editable=1;overflow=hidden;whiteSpace=wrap;html=1;" vertex="1" parent="SoccBnHSWLBsHFDYlzGv-246">
          <mxGeometry width="30" height="30" as="geometry">
            <mxRectangle width="30" height="30" as="alternateBounds" />
          </mxGeometry>
        </mxCell>
        <mxCell id="SoccBnHSWLBsHFDYlzGv-248" value="email: STRING {Not Null, Unique}" style="shape=partialRectangle;connectable=0;fillColor=none;top=0;left=0;bottom=0;right=0;align=left;spacingLeft=6;overflow=hidden;whiteSpace=wrap;html=1;" vertex="1" parent="SoccBnHSWLBsHFDYlzGv-246">
          <mxGeometry x="30" width="190" height="30" as="geometry">
            <mxRectangle width="190" height="30" as="alternateBounds" />
          </mxGeometry>
        </mxCell>
        <mxCell id="SoccBnHSWLBsHFDYlzGv-249" value="" style="shape=tableRow;horizontal=0;startSize=0;swimlaneHead=0;swimlaneBody=0;fillColor=none;collapsible=0;dropTarget=0;points=[[0,0.5],[1,0.5]];portConstraint=eastwest;top=0;left=0;right=0;bottom=0;" vertex="1" parent="SoccBnHSWLBsHFDYlzGv-236">
          <mxGeometry y="150" width="220" height="30" as="geometry" />
        </mxCell>
        <mxCell id="SoccBnHSWLBsHFDYlzGv-250" value="" style="shape=partialRectangle;connectable=0;fillColor=none;top=0;left=0;bottom=0;right=0;editable=1;overflow=hidden;whiteSpace=wrap;html=1;" vertex="1" parent="SoccBnHSWLBsHFDYlzGv-249">
          <mxGeometry width="30" height="30" as="geometry">
            <mxRectangle width="30" height="30" as="alternateBounds" />
          </mxGeometry>
        </mxCell>
        <mxCell id="SoccBnHSWLBsHFDYlzGv-251" value="password: STRING {Not Null}" style="shape=partialRectangle;connectable=0;fillColor=none;top=0;left=0;bottom=0;right=0;align=left;spacingLeft=6;overflow=hidden;whiteSpace=wrap;html=1;" vertex="1" parent="SoccBnHSWLBsHFDYlzGv-249">
          <mxGeometry x="30" width="190" height="30" as="geometry">
            <mxRectangle width="190" height="30" as="alternateBounds" />
          </mxGeometry>
        </mxCell>
        <mxCell id="SoccBnHSWLBsHFDYlzGv-252" value="" style="shape=tableRow;horizontal=0;startSize=0;swimlaneHead=0;swimlaneBody=0;fillColor=none;collapsible=0;dropTarget=0;points=[[0,0.5],[1,0.5]];portConstraint=eastwest;top=0;left=0;right=0;bottom=0;" vertex="1" parent="SoccBnHSWLBsHFDYlzGv-236">
          <mxGeometry y="180" width="220" height="30" as="geometry" />
        </mxCell>
        <mxCell id="SoccBnHSWLBsHFDYlzGv-253" value="" style="shape=partialRectangle;connectable=0;fillColor=none;top=0;left=0;bottom=0;right=0;editable=1;overflow=hidden;whiteSpace=wrap;html=1;" vertex="1" parent="SoccBnHSWLBsHFDYlzGv-252">
          <mxGeometry width="30" height="30" as="geometry">
            <mxRectangle width="30" height="30" as="alternateBounds" />
          </mxGeometry>
        </mxCell>
        <mxCell id="SoccBnHSWLBsHFDYlzGv-254" value="birthdate: DATE" style="shape=partialRectangle;connectable=0;fillColor=none;top=0;left=0;bottom=0;right=0;align=left;spacingLeft=6;overflow=hidden;whiteSpace=wrap;html=1;" vertex="1" parent="SoccBnHSWLBsHFDYlzGv-252">
          <mxGeometry x="30" width="190" height="30" as="geometry">
            <mxRectangle width="190" height="30" as="alternateBounds" />
          </mxGeometry>
        </mxCell>
        <mxCell id="SoccBnHSWLBsHFDYlzGv-255" value="" style="shape=tableRow;horizontal=0;startSize=0;swimlaneHead=0;swimlaneBody=0;fillColor=none;collapsible=0;dropTarget=0;points=[[0,0.5],[1,0.5]];portConstraint=eastwest;top=0;left=0;right=0;bottom=0;" vertex="1" parent="SoccBnHSWLBsHFDYlzGv-236">
          <mxGeometry y="210" width="220" height="30" as="geometry" />
        </mxCell>
        <mxCell id="SoccBnHSWLBsHFDYlzGv-256" value="" style="shape=partialRectangle;connectable=0;fillColor=none;top=0;left=0;bottom=0;right=0;editable=1;overflow=hidden;whiteSpace=wrap;html=1;" vertex="1" parent="SoccBnHSWLBsHFDYlzGv-255">
          <mxGeometry width="30" height="30" as="geometry">
            <mxRectangle width="30" height="30" as="alternateBounds" />
          </mxGeometry>
        </mxCell>
        <mxCell id="SoccBnHSWLBsHFDYlzGv-257" value="address: STRING" style="shape=partialRectangle;connectable=0;fillColor=none;top=0;left=0;bottom=0;right=0;align=left;spacingLeft=6;overflow=hidden;whiteSpace=wrap;html=1;" vertex="1" parent="SoccBnHSWLBsHFDYlzGv-255">
          <mxGeometry x="30" width="190" height="30" as="geometry">
            <mxRectangle width="190" height="30" as="alternateBounds" />
          </mxGeometry>
        </mxCell>
        <mxCell id="SoccBnHSWLBsHFDYlzGv-258" value="" style="shape=tableRow;horizontal=0;startSize=0;swimlaneHead=0;swimlaneBody=0;fillColor=none;collapsible=0;dropTarget=0;points=[[0,0.5],[1,0.5]];portConstraint=eastwest;top=0;left=0;right=0;bottom=0;" vertex="1" parent="SoccBnHSWLBsHFDYlzGv-236">
          <mxGeometry y="240" width="220" height="30" as="geometry" />
        </mxCell>
        <mxCell id="SoccBnHSWLBsHFDYlzGv-259" value="" style="shape=partialRectangle;connectable=0;fillColor=none;top=0;left=0;bottom=0;right=0;editable=1;overflow=hidden;whiteSpace=wrap;html=1;" vertex="1" parent="SoccBnHSWLBsHFDYlzGv-258">
          <mxGeometry width="30" height="30" as="geometry">
            <mxRectangle width="30" height="30" as="alternateBounds" />
          </mxGeometry>
        </mxCell>
        <mxCell id="SoccBnHSWLBsHFDYlzGv-260" value="phonenumber: STRING" style="shape=partialRectangle;connectable=0;fillColor=none;top=0;left=0;bottom=0;right=0;align=left;spacingLeft=6;overflow=hidden;whiteSpace=wrap;html=1;" vertex="1" parent="SoccBnHSWLBsHFDYlzGv-258">
          <mxGeometry x="30" width="190" height="30" as="geometry">
            <mxRectangle width="190" height="30" as="alternateBounds" />
          </mxGeometry>
        </mxCell>
        <mxCell id="SoccBnHSWLBsHFDYlzGv-261" value="" style="shape=tableRow;horizontal=0;startSize=0;swimlaneHead=0;swimlaneBody=0;fillColor=none;collapsible=0;dropTarget=0;points=[[0,0.5],[1,0.5]];portConstraint=eastwest;top=0;left=0;right=0;bottom=0;" vertex="1" parent="SoccBnHSWLBsHFDYlzGv-236">
          <mxGeometry y="270" width="220" height="30" as="geometry" />
        </mxCell>
        <mxCell id="SoccBnHSWLBsHFDYlzGv-262" value="" style="shape=partialRectangle;connectable=0;fillColor=none;top=0;left=0;bottom=0;right=0;editable=1;overflow=hidden;whiteSpace=wrap;html=1;" vertex="1" parent="SoccBnHSWLBsHFDYlzGv-261">
          <mxGeometry width="30" height="30" as="geometry">
            <mxRectangle width="30" height="30" as="alternateBounds" />
          </mxGeometry>
        </mxCell>
        <mxCell id="SoccBnHSWLBsHFDYlzGv-263" value="role: ENUM" style="shape=partialRectangle;connectable=0;fillColor=none;top=0;left=0;bottom=0;right=0;align=left;spacingLeft=6;overflow=hidden;whiteSpace=wrap;html=1;" vertex="1" parent="SoccBnHSWLBsHFDYlzGv-261">
          <mxGeometry x="30" width="190" height="30" as="geometry">
            <mxRectangle width="190" height="30" as="alternateBounds" />
          </mxGeometry>
        </mxCell>
        <mxCell id="SoccBnHSWLBsHFDYlzGv-264" value="" style="shape=tableRow;horizontal=0;startSize=0;swimlaneHead=0;swimlaneBody=0;fillColor=none;collapsible=0;dropTarget=0;points=[[0,0.5],[1,0.5]];portConstraint=eastwest;top=0;left=0;right=0;bottom=0;" vertex="1" parent="SoccBnHSWLBsHFDYlzGv-236">
          <mxGeometry y="300" width="220" height="30" as="geometry" />
        </mxCell>
        <mxCell id="SoccBnHSWLBsHFDYlzGv-265" value="" style="shape=partialRectangle;connectable=0;fillColor=none;top=0;left=0;bottom=0;right=0;editable=1;overflow=hidden;whiteSpace=wrap;html=1;" vertex="1" parent="SoccBnHSWLBsHFDYlzGv-264">
          <mxGeometry width="30" height="30" as="geometry">
            <mxRectangle width="30" height="30" as="alternateBounds" />
          </mxGeometry>
        </mxCell>
        <mxCell id="SoccBnHSWLBsHFDYlzGv-266" value="isActive: BOOLEAN" style="shape=partialRectangle;connectable=0;fillColor=none;top=0;left=0;bottom=0;right=0;align=left;spacingLeft=6;overflow=hidden;whiteSpace=wrap;html=1;" vertex="1" parent="SoccBnHSWLBsHFDYlzGv-264">
          <mxGeometry x="30" width="190" height="30" as="geometry">
            <mxRectangle width="190" height="30" as="alternateBounds" />
          </mxGeometry>
        </mxCell>
        <mxCell id="SoccBnHSWLBsHFDYlzGv-271" value="FK" style="shape=partialRectangle;connectable=0;fillColor=none;top=0;left=0;bottom=0;right=0;fontStyle=1;overflow=hidden;whiteSpace=wrap;html=1;" vertex="1" parent="WIyWlLk6GJQsqaUBKTNV-1">
          <mxGeometry x="50" y="680" width="30" height="30" as="geometry">
            <mxRectangle width="30" height="30" as="alternateBounds" />
          </mxGeometry>
        </mxCell>
        <mxCell id="SoccBnHSWLBsHFDYlzGv-273" value="FK" style="shape=partialRectangle;connectable=0;fillColor=none;top=0;left=0;bottom=0;right=0;fontStyle=1;overflow=hidden;whiteSpace=wrap;html=1;" vertex="1" parent="WIyWlLk6GJQsqaUBKTNV-1">
          <mxGeometry x="50" y="710" width="30" height="30" as="geometry">
            <mxRectangle width="30" height="30" as="alternateBounds" />
          </mxGeometry>
        </mxCell>
      </root>
    </mxGraphModel>
  </diagram>
</mxfile>
